<?xml version="1.0" encoding="utf-8" ?><svg xmlns="http://www.w3.org/2000/svg" xmlns:xlink="http://www.w3.org/1999/xlink" width="1024" height="1024" viewBox="0 0 1024 1024"><defs><linearGradient id="gradient_0" gradientUnits="userSpaceOnUse" x1="449.24683" y1="1071.9559" x2="574.25317" y2="-48.45591"><stop offset="0" stop-color="#0D1012"/><stop offset="1" stop-color="#312626"/></linearGradient></defs><path fill="url(#gradient_0)" d="M0 0L1024 0L1024 1024L0 1024L0 0Z"/><path d="M451.352 129.26C450.088 128.444 448.63 128.555 447.147 128.462C449.289 128.012 447.727 128.288 449.039 127.623C460.367 121.803 475.216 116.489 487.581 113.557C493.812 112.079 514.409 122.173 520.901 124.07C536.519 128.633 551.419 135.018 566.635 140.666L638.539 167.24C648.757 170.948 658.998 174.59 669.262 178.166C671.424 178.927 681.432 182.328 682.87 183.238C687.649 184.961 694.453 187.35 698.814 189.735C728.666 203.648 736.35 219.633 735.191 252.247C734.704 261.815 735.278 271.306 734.938 280.783C735.368 287.403 734.99 295.181 734.921 301.894C734.657 327.638 735.304 353.507 733.508 379.19C733.815 386.898 733.47 395.589 733.464 403.405L733.506 446.75C733.435 456.829 734.108 468.721 733.717 478.439C732.867 474.911 734.371 468.051 732.159 461.739C731.936 464.505 732.27 472.163 731.65 473.964C731.006 478.19 732.163 479.451 729.104 483.224C725.815 487.281 721.976 487.567 717.185 488.079C716.434 472.699 716.948 462.061 717.06 446.999L717.002 408.291C717.022 401.817 717.525 382.514 716.566 377.225C716.114 386.576 716.608 396.027 716.22 405.372C715.284 403.343 716.669 401.783 715.905 399.3C714.032 399.722 713.572 399.718 711.969 400.851C710.04 409.006 712.287 433.384 711.787 442.683C711.613 445.927 712.906 448.637 711.624 452.298C711.303 449.016 710.001 430.33 711.023 428.271L710.494 428.062C710.105 430.211 709.934 430.562 708.646 432.332C708.491 440.289 709.057 467.837 707.563 474.175C706.817 565.851 706.562 657.53 706.799 749.208L706.941 816.368C707.115 839.546 711.288 863.216 694.478 881.679C687.391 887.503 678.342 889.129 669.431 888.857C663.387 891.627 653.349 893.543 646.557 894.863C642.464 895.631 633.401 893.965 629.023 893.07C625.178 893.827 618.572 895.363 614.917 895.002C613.976 897.096 614.165 898.888 614.122 901.214C612.111 901.713 605.636 902.099 603.271 902.64C596.765 904.128 565.122 909.157 560.216 906.34L560.03 905.459C561.314 904.331 563.989 903.875 565.751 903.415C564.244 902.893 527.035 902.415 522.909 902.671C506.466 903.693 490.812 901.095 474.837 900.971L474.052 901.041C467.448 903.1 419.121 900.549 409.502 899.663C406.177 899.357 394.403 896.98 390.963 895.449L391.32 894.746C392.511 894.833 392.993 894.585 394.095 894.149C391.14 894.212 389.43 893.767 386.576 893.193C394.22 886.958 420.055 883.293 431.095 880.194C438.512 878.186 445.666 875.31 452.409 871.627C458.325 868.462 463.73 864.425 468.444 859.649C477.026 850.783 477.892 844.707 490 838.963C498.724 834.824 517.58 838.974 520.443 837.298L519.65 836.086L519.086 835.707C506.664 831.781 500.377 826.305 485.422 825.098C483.549 825.024 480.103 823.38 478.193 822.635C468.803 818.971 459.937 816.441 451.43 810.915C459.118 825.286 458.208 830.349 458.095 846.216C455.365 848.683 453.526 850.149 450.559 852.338L449.26 852.311C448.41 852.285 446.622 852.258 445.921 852.62C438.633 856.389 433.462 859.799 425.321 861.914C424.917 863.067 424.988 862.646 425.021 863.925L425.448 865.308L424.86 866.131C420.89 866.946 404.936 863.229 399.245 862.433C395.829 862.298 382.467 865.528 376.313 866.01C361.823 867.101 341.794 868.293 327.605 866.881C311.057 865.235 272.314 856.644 261.642 844.723C258.779 828.369 264.386 799.932 272.471 785.548C277.859 775.962 285.68 765.057 293.087 756.829C294.777 754.952 297.216 750.435 299.422 749.756L300.858 750.576C301.014 748.695 301.861 745.467 302.308 743.522C305.942 735.151 310.726 727.503 314.07 719.124C315.507 715.523 316.762 709.966 317.713 706.073C317.902 705.018 318.23 704.591 318.725 703.577C313.008 692.007 303.561 675.655 313.98 664.19C317.607 660.837 329.212 657.97 334.447 656.766C336.315 652.049 337.423 647.433 338.477 642.472L342.004 646.958L347.849 647.988C347.893 652.42 347.839 653.697 348.694 657.992C361.682 664.561 367.2 662.278 368.405 679.554C377.295 693.997 380.22 699.645 392.952 711.466C393.508 708.994 394.372 706.519 395.15 704.098C402.48 699.63 412.597 695.893 420.554 691.404C419.368 688.754 420.518 636.965 420.524 629.909L419.843 406.447L419.842 324.511C419.86 310.425 420.516 291.684 419.496 278.148L419.577 277.492C420.86 274.259 419.782 249.59 419.712 244.048C419.413 219.222 419.584 194.286 419.714 169.463C419.769 158.806 419.726 149.048 426.988 140.57C432.151 134.543 437.974 130.731 445.99 129.497C447.41 129.278 448.984 129.522 450.501 129.357L451.352 129.26Z"/><defs><linearGradient id="gradient_1" gradientUnits="userSpaceOnUse" x1="417.86282" y1="438.67365" x2="705.72955" y2="452.96582"><stop offset="0" stop-color="#251B1C"/><stop offset="1" stop-color="#543131"/></linearGradient></defs><path fill="url(#gradient_1)" d="M432.028 675.517C431.334 673.042 431.714 650.235 431.662 645.764C431.544 592.657 431.746 539.55 432.266 486.445L431.279 279.699L430.944 218.25C430.778 202.645 430.413 187.148 430.712 171.549C431.436 133.775 453.133 141.115 478.907 151.182C479.276 160.339 484.333 171.85 491.306 177.716C503.112 187.646 522.063 191.619 536.243 197.173L579.384 213.781C590.179 217.959 600.91 222.379 611.973 225.816C618.505 227.845 626.196 228.596 631.14 222.878C635.266 218.108 635.75 214.174 636.558 208.247C648.576 211.719 670.493 220.331 679.247 229.378C687.395 237.8 693.236 253.183 693.525 264.873C693.758 285.735 693.448 306.934 693.481 327.837L692.947 480.645L693.016 665.749L692.907 713.409C692.894 718.699 693.278 726.014 693.08 730.954C693.213 742.943 693.234 754.932 693.144 766.921C693.124 770.735 693.331 779.267 692.995 782.78C692.538 784.843 692.739 785.853 691.096 787.036C684.89 791.504 666.072 789.307 660.853 792.71C660.23 791.92 659.225 791.535 658.234 791.705C657.242 791.875 656.423 792.573 656.098 793.525C655.773 794.476 655.995 795.53 656.675 796.27C654.806 794.085 657.192 793.76 655.959 791.422C655.282 791.27 654.948 791.119 654.352 791.207C645.002 792.585 636.092 786.822 626.967 784.851C624.692 784.36 620.651 785.027 617.719 784.457C596.82 780.416 574.931 774.873 553.632 775.089C552.434 775.101 551.797 777.371 550.629 778.319C548.053 778.873 547.257 777.948 545.194 776.542L544.921 776.851L544.903 773.426C543.335 773.035 540.409 773.536 538.157 772.811C526.543 769.072 518.184 770.138 510.674 759.227C514.099 758.076 538.644 748.109 540.693 746.645C539.176 746.393 534.929 749.362 533.821 748.848C530.927 747.524 527.904 742.24 524.381 741.822C511.162 740.255 497.885 735.71 484.813 733.951C472.863 732.343 460.76 733.666 448.996 730.491C450.784 729.375 451.021 729.201 452.505 727.725L452.431 726.99C454.456 717.144 456.589 706.158 459.231 696.451C459.434 695.706 459.554 695.919 460.582 695.444C459.286 688.846 464.567 677.551 462.379 672.71C458.26 671.711 447.643 678.503 443.138 680.379C439.792 681.772 434.161 684.182 431.159 686.002L431.231 685.349C431.808 681.631 431.902 679.296 432.028 675.517Z"/><defs><linearGradient id="gradient_2" gradientUnits="userSpaceOnUse" x1="599.82788" y1="786.04871" x2="606.66614" y2="720.89911"><stop offset="0" stop-color="#B1191B"/><stop offset="1" stop-color="#702322"/></linearGradient></defs><path fill="url(#gradient_2)" d="M579.222 717.478C587.063 717.165 610.337 713.19 616.02 715.92C616.802 716.995 616.669 716.399 616.642 717.673C612.334 719.469 609.674 718.662 604.69 721.062C595.229 725.619 583.201 729.88 573.88 734.622C575.709 743.819 611.284 744.555 619.186 744.995C627.756 745.472 661.018 749.423 666.466 743.701C664.654 738.224 647.298 726.384 644.867 722.793C645.712 722.517 657.212 726.871 659.249 727.178C660.761 727.406 664.763 730.051 666.459 730.396C673.455 731.819 679.697 733.691 686.855 734.36C687.82 733.824 692.462 731.139 693.08 730.954C693.213 742.943 693.234 754.932 693.144 766.921C693.124 770.735 693.331 779.267 692.995 782.78C692.538 784.843 692.739 785.853 691.096 787.036C684.89 791.504 666.072 789.307 660.853 792.71C660.23 791.92 659.225 791.535 658.234 791.705C657.242 791.875 656.423 792.573 656.098 793.525C655.773 794.476 655.995 795.53 656.675 796.27C654.806 794.085 657.192 793.76 655.959 791.422C655.282 791.27 654.948 791.119 654.352 791.207C645.002 792.585 636.092 786.822 626.967 784.851C624.692 784.36 620.651 785.027 617.719 784.457C596.82 780.416 574.931 774.873 553.632 775.089C552.434 775.101 551.797 777.371 550.629 778.319C548.053 778.873 547.257 777.948 545.194 776.542L544.921 776.851L544.903 773.426C543.335 773.035 540.409 773.536 538.157 772.811C526.543 769.072 518.184 770.138 510.674 759.227C514.099 758.076 538.644 748.109 540.693 746.645C546.323 745.452 554.078 740.858 559.862 738.821C573.807 733.908 586.499 726.989 600.223 721.612C608.128 718.515 606.274 718.192 614.917 717.089L614.804 716.563C605.111 714.518 589.822 720.282 579.222 717.478Z"/><path fill="#F06A69" d="M545.194 776.542C545.472 774.679 545.402 773.389 546.713 772.12C548.588 771.406 547.712 771.377 549.428 771.955C551.726 774.292 551.097 775.213 550.629 778.319C548.053 778.873 547.257 777.948 545.194 776.542Z"/><path fill="#912121" d="M452.431 726.99C454.456 717.144 456.589 706.158 459.231 696.451C459.434 695.706 459.554 695.919 460.582 695.444C469.791 699.892 479.158 704.005 489.188 706.235C496.837 707.936 504.705 708.938 512.423 710.29C517.163 711.121 521.59 713.485 526.334 714.34C544.13 717.345 561.276 717.203 579.222 717.478C589.822 720.282 605.111 714.518 614.804 716.563L614.917 717.089C606.274 718.192 608.128 718.515 600.223 721.612C586.499 726.989 573.807 733.908 559.862 738.821C554.078 740.858 546.323 745.452 540.693 746.645C539.176 746.393 534.929 749.362 533.821 748.848C530.927 747.524 527.904 742.24 524.381 741.822C511.162 740.255 497.885 735.71 484.813 733.951C472.863 732.343 460.76 733.666 448.996 730.491C450.784 729.375 451.021 729.201 452.505 727.725L452.431 726.99Z"/><path fill="#852323" d="M432.028 675.517C433.493 678.635 432.999 678.519 435.5 681.289L435.619 682.396C433.886 683.906 432.801 684.165 431.231 685.349C431.808 681.631 431.902 679.296 432.028 675.517Z"/><path fill="#F2292F" d="M462.148 337.791C469.249 323.214 490.264 336.178 500.386 339.364C512.125 343.058 523.48 347.127 535.05 351.237C560.288 360.263 585.447 369.514 610.521 378.987C622.991 383.713 636.743 388.53 648.953 393.869C648.739 419.128 648.199 444.646 648.607 469.931L649.197 499.786C649.542 512.169 652.878 543.544 634.006 541.897C622.173 540.864 601.702 530.768 590.244 526.237C568.61 517.555 546.908 509.042 525.14 500.7C515.64 497.023 506.041 493.608 496.354 490.458C488.197 487.716 474.351 484.388 468.503 478.325C458.314 467.761 459.95 453.896 459.919 440.591L460.018 393.22C460.029 385.743 458.69 348.045 460.342 343.673C460.755 341.151 461.193 340.191 462.148 337.791Z"/><path fill="#F84A49" d="M462.148 337.791C463.476 339.685 462.784 339.148 463.073 340.586C465.62 353.263 486.105 374.72 490.662 385.271C481.662 376.966 471.376 361.028 463.414 351.328C461.496 348.99 462.087 343.997 462.248 341.116L461.883 341.399L462.344 341.268L462.057 340.906L460.342 343.673C460.755 341.151 461.193 340.191 462.148 337.791Z"/><defs><linearGradient id="gradient_3" gradientUnits="userSpaceOnUse" x1="580.48126" y1="420.06097" x2="585.58447" y2="452.13354"><stop offset="0" stop-color="#7D0913"/><stop offset="1" stop-color="#592226"/></linearGradient></defs><path fill="url(#gradient_3)" d="M628.509 412.308L629.497 412.871C619.156 418.352 612.179 424.843 602.378 430.936C598.617 433.274 594.62 436.114 590.737 438.141C587.281 439.945 583.651 441.232 580.198 443.191C580.12 443.611 579.994 444.363 579.864 444.748C578.726 448.12 558.237 457.234 554.556 458.675C549.344 454.665 531.936 435.918 531.707 429.444L532.212 429.032C537.578 430.998 545.842 446.149 549.827 447.686C556.42 450.229 577.14 438.215 582.256 435.535L608.178 422.223C614.586 418.887 621.697 416.189 627.827 412.701L628.509 412.308Z"/><path fill="#AE3436" d="M628.509 412.308C633.028 409.606 635.381 408.143 640.293 406.248C639.755 407.419 631.267 411.898 629.497 412.871L628.509 412.308Z"/><path fill="#852323" d="M580.413 321.487C584.786 322.026 602.983 330.21 608.335 331.989C618.454 335.351 630.626 340.348 640.61 343.487C641.206 352.191 641.299 358.513 640.834 367.207C632.991 364.452 625.172 361.631 617.376 358.744C607.13 353.688 596.009 350.485 585.176 346.994C580.514 345.493 576.328 343.193 571.554 341.836L571.798 341.517C577.21 342.625 584.896 346.953 589.546 347.522L589.844 347.023C588.762 345.721 587.704 344.398 586.673 343.056C589.774 339.476 585.412 333.254 589.191 329.282L588.948 328.717C589.929 327.843 589.649 328.242 590.048 326.957C589.017 324.408 583.242 322.749 580.413 321.487Z"/><path fill="#AE3436" d="M476.235 614.02C479.624 615.628 485.243 617.22 488.969 618.531L514.309 627.632C536.331 635.451 558.34 643.613 580.227 651.796C588.935 655.052 603.359 658.89 610.722 663.753L610.236 668.812L477.023 620.505C476.411 619.008 477.068 616.621 476.235 614.02Z"/><path fill="#AE3436" d="M610.022 642.006C602.272 640.851 588.648 633.837 580.587 631.27C549.765 621.459 520.318 607.929 489.144 599.084C484.709 597.826 477.661 595.852 476.888 590.667L477.585 589.73C482.1 588.251 505.669 598.494 511.211 600.407C543.881 611.658 576.328 623.545 608.534 636.06C607.733 638.419 607.553 637.858 607.966 639.998C608.632 640.674 609.3 641.4 610.022 642.006Z"/><path fill="#F2292F" d="M520.87 577.999C527.437 578.246 534.915 579.066 539.231 584.609C545.894 587.442 554.911 589.701 562.097 592.301L633.771 617.92C641.721 620.744 649.944 622.921 657.74 626.172C660.158 627.18 663.815 629.219 662.79 632.381C659.091 634.233 650.644 629.778 646.68 628.212C633.141 622.865 619.296 618.436 605.644 613.496L557.267 595.666C548.043 592.298 539.428 588.231 529.846 585.66C525.894 584.6 522.24 582.61 518.03 581.664C518.484 579.263 518.346 578.955 520.384 577.888L520.87 577.999Z"/><path fill="#852323" d="M520.87 577.999C527.437 578.246 534.915 579.066 539.231 584.609C533.627 583.041 526.324 580.142 520.87 577.999Z"/><path fill="#F84A49" d="M608.534 636.06C626.2 641.707 643.115 648.266 660.303 655.17C662.338 655.987 664.088 658.091 663.184 660.34C658.762 662.392 647.263 655.548 642.647 654.018C632.079 650.516 620.722 644.838 610.022 642.006C609.3 641.4 608.632 640.674 607.966 639.998C607.553 637.858 607.733 638.419 608.534 636.06Z"/><path fill="#852323" d="M518.03 581.664C516.744 581.495 507.265 577.03 504.725 576.149C496.796 573.331 488.588 571.29 480.619 568.576C478.507 567.857 476.475 565.996 477.126 563.645C477.966 563.21 478.615 563.008 479.557 563.059C482.72 563.228 519.103 576.441 520.384 577.888C518.346 578.955 518.484 579.263 518.03 581.664Z"/><path fill="#F06A69" d="M514.392 698.849C515.337 698.317 516.501 698.36 517.405 698.96C518.309 699.56 518.8 700.616 518.677 701.694C518.553 702.772 517.836 703.69 516.82 704.07C515.407 704.598 513.826 703.951 513.19 702.583C512.554 701.215 513.077 699.589 514.392 698.849Z"/><defs><linearGradient id="gradient_4" gradientUnits="userSpaceOnUse" x1="344.27872" y1="821.56274" x2="414.16647" y2="782.89081"><stop offset="0" stop-color="#110A0A"/><stop offset="1" stop-color="#581B1B"/></linearGradient></defs><path fill="url(#gradient_4)" d="M338.477 642.472L342.004 646.958L347.849 647.988C347.893 652.42 347.839 653.697 348.694 657.992C361.682 664.561 367.2 662.278 368.405 679.554C377.295 693.997 380.22 699.645 392.952 711.466C393.508 708.994 394.372 706.519 395.15 704.098C402.48 699.63 412.597 695.893 420.554 691.404C423.627 689.991 428.628 687.914 431.159 686.002C434.161 684.182 439.792 681.772 443.138 680.379C447.643 678.503 458.26 671.711 462.379 672.71C464.567 677.551 459.286 688.846 460.582 695.444C459.554 695.919 459.434 695.706 459.231 696.451C456.589 706.158 454.456 717.144 452.431 726.99C448.582 730.03 441.976 732.841 437.39 735.299C437.406 738.41 437.561 742.216 437.066 745.23C436.927 742.034 436.875 738.834 436.91 735.635C427.281 739.654 429.493 740.674 428.337 749.789C426.577 763.669 432.773 776.971 438.586 789.413C443.564 800.068 467.84 813.25 479.476 815.881C480.765 816.172 484.559 817.287 485.398 817.708C486.317 819.738 485.823 819.426 487.422 820.472C487.146 822.356 486.355 823.438 485.422 825.098C483.549 825.024 480.103 823.38 478.193 822.635C468.803 818.971 459.937 816.441 451.43 810.915C459.118 825.286 458.208 830.349 458.095 846.216C455.365 848.683 453.526 850.149 450.559 852.338L449.26 852.311C448.41 852.285 446.622 852.258 445.921 852.62C438.633 856.389 433.462 859.799 425.321 861.914C424.917 863.067 424.988 862.646 425.021 863.925L425.448 865.308L424.86 866.131C420.89 866.946 404.936 863.229 399.245 862.433C395.829 862.298 382.467 865.528 376.313 866.01C361.823 867.101 341.794 868.293 327.605 866.881C311.057 865.235 272.314 856.644 261.642 844.723C258.779 828.369 264.386 799.932 272.471 785.548C277.859 775.962 285.68 765.057 293.087 756.829C294.777 754.952 297.216 750.435 299.422 749.756L300.858 750.576C301.014 748.695 301.861 745.467 302.308 743.522C305.942 735.151 310.726 727.503 314.07 719.124C315.507 715.523 316.762 709.966 317.713 706.073C317.902 705.018 318.23 704.591 318.725 703.577C313.008 692.007 303.561 675.655 313.98 664.19C317.607 660.837 329.212 657.97 334.447 656.766C336.315 652.049 337.423 647.433 338.477 642.472Z"/><path fill="#501112" d="M261.642 844.723C258.779 828.369 264.386 799.932 272.471 785.548C277.859 775.962 285.68 765.057 293.087 756.829C294.777 754.952 297.216 750.435 299.422 749.756L300.858 750.576C301.932 751.197 305.413 753.113 306.187 753.768C306.492 756.423 314.692 766.565 317.307 768.944C322.088 773.295 329.173 778.22 335.787 779.662C337.066 779.94 339.619 780.818 340.099 781.997C338.142 781.969 336.725 781.871 334.774 781.689C339.649 783.763 357.513 783.359 363.733 784.279C365.75 784.577 378.528 783.265 378.763 784.897C380.812 799.126 380.344 814.152 382.489 828.556C382.94 831.583 384.984 842.35 384.731 844.068L384.955 844.49C385.138 849.149 384.254 853.456 384.47 858.529C392.579 862.511 391.931 860.854 399.245 862.433C395.829 862.298 382.467 865.528 376.313 866.01C361.823 867.101 341.794 868.293 327.605 866.881C311.057 865.235 272.314 856.644 261.642 844.723Z"/><path fill="#401111" d="M431.159 686.002C434.161 684.182 439.792 681.772 443.138 680.379C447.643 678.503 458.26 671.711 462.379 672.71C464.567 677.551 459.286 688.846 460.582 695.444C459.554 695.919 459.434 695.706 459.231 696.451C456.589 706.158 454.456 717.144 452.431 726.99C448.582 730.03 441.976 732.841 437.39 735.299C437.406 738.41 437.561 742.216 437.066 745.23C436.927 742.034 436.875 738.834 436.91 735.635C427.281 739.654 429.493 740.674 428.337 749.789C426.577 763.669 432.773 776.971 438.586 789.413C443.564 800.068 467.84 813.25 479.476 815.881C480.765 816.172 484.559 817.287 485.398 817.708C486.317 819.738 485.823 819.426 487.422 820.472C487.146 822.356 486.355 823.438 485.422 825.098C483.549 825.024 480.103 823.38 478.193 822.635C468.803 818.971 459.937 816.441 451.43 810.915C459.118 825.286 458.208 830.349 458.095 846.216C455.365 848.683 453.526 850.149 450.559 852.338L449.26 852.311C439.569 850.907 419.578 846.708 411.899 841.139C411.86 838.675 411.444 835.92 412.269 833.791L413.597 833.228C412.406 833.27 412.48 833.312 411.423 832.78C410.58 831.067 410.931 828.746 411.014 826.756C406.575 820.782 409.243 817.479 406.8 815.231L404.668 815.543C406.676 806.937 408.463 798.527 410.201 789.862C411.917 781.304 414.337 773.636 414.583 764.775C414.789 757.394 412.993 754.451 408.1 749.208C404.362 750.829 400.672 752.555 397.031 754.383C393.365 755.822 389.278 758.606 385.783 759.564L385.155 759.213C382.09 755.251 379.049 756.849 375.306 754.246C377.294 754.114 382.043 756.517 383.371 755.436L380.624 753.905L381.11 753.65L385.005 754.875C384.678 753.564 383.082 751.55 381.763 751.14C381.422 751.346 379.632 752.362 379.302 752.198C373.263 749.211 367.103 746.997 360.775 744.702C367.086 741.363 385.942 735.621 388.412 730.318L388.976 730.285L388.058 729.587C387.632 726.826 390.034 727.336 390.758 723.445C390.961 720.841 392.407 714.35 392.952 711.466C393.508 708.994 394.372 706.519 395.15 704.098C402.48 699.63 412.597 695.893 420.554 691.404C423.627 689.991 428.628 687.914 431.159 686.002Z"/><path fill="#912121" d="M420.757 743.743C426.418 752.481 425.671 760.81 426.197 770.872C427.255 791.086 426.1 811.553 426.593 831.756C434.147 839.602 442.941 843.802 450.559 852.338L449.26 852.311C439.569 850.907 419.578 846.708 411.899 841.139C411.86 838.675 411.444 835.92 412.269 833.791L413.597 833.228C415.766 832.977 416.5 833.03 418.407 832.09C419.258 829.867 417.518 806.98 417.628 802.314C417.272 791.546 418.64 786.778 419.85 776.499C420.653 769.684 415.796 753.642 413.496 747.134L415.019 746.261C416.964 745.332 418.709 744.433 420.757 743.743Z"/><path fill="#852323" d="M413.496 747.134L415.019 746.261C417.601 749.396 418.341 750.203 421.48 752.748C423.527 757.274 420.712 801.999 421.245 810.953L420.826 811.371C418.383 803.997 423.352 790.661 420.35 784.688L420.104 784.644C416.995 791.652 419.42 796.248 417.628 802.314C417.272 791.546 418.64 786.778 419.85 776.499C420.653 769.684 415.796 753.642 413.496 747.134Z"/><path fill="#AE3436" d="M431.159 686.002C434.161 684.182 439.792 681.772 443.138 680.379C447.643 678.503 458.26 671.711 462.379 672.71C459.79 675.164 451.661 678.748 448.08 680.49L414.472 696.747C410.604 698.604 399.769 703.517 396.608 705.659C392.721 719.763 390.597 735.034 387.156 749.308C386.406 752.418 385.622 756.061 385.155 759.213C382.09 755.251 379.049 756.849 375.306 754.246C377.294 754.114 382.043 756.517 383.371 755.436L380.624 753.905L381.11 753.65L385.005 754.875C384.678 753.564 383.082 751.55 381.763 751.14C381.422 751.346 379.632 752.362 379.302 752.198C373.263 749.211 367.103 746.997 360.775 744.702C367.086 741.363 385.942 735.621 388.412 730.318L388.976 730.285L388.058 729.587C387.632 726.826 390.034 727.336 390.758 723.445C390.961 720.841 392.407 714.35 392.952 711.466C393.508 708.994 394.372 706.519 395.15 704.098C402.48 699.63 412.597 695.893 420.554 691.404C423.627 689.991 428.628 687.914 431.159 686.002Z"/><path fill="#F84A49" d="M425.603 712.253C426.869 712.412 426.562 712.389 427.782 712.904C429.596 715.812 426.651 717.997 424.498 719.753C424.167 719.721 423.186 719.461 422.822 719.373C421.204 716.473 423.409 714.13 425.603 712.253Z"/><path fill="#912121" d="M338.477 642.472L342.004 646.958L347.849 647.988C347.893 652.42 347.839 653.697 348.694 657.992C361.682 664.561 367.2 662.278 368.405 679.554C377.295 693.997 380.22 699.645 392.952 711.466C392.407 714.35 390.961 720.841 390.758 723.445C390.034 727.336 387.632 726.826 388.058 729.587L388.976 730.285L388.412 730.318C371.541 730.632 349.626 733.74 334.082 725.785C330.782 724.095 326.026 716.437 323.693 715.07C323.649 714.463 319.407 705.299 318.725 703.577C313.008 692.007 303.561 675.655 313.98 664.19C317.607 660.837 329.212 657.97 334.447 656.766C336.315 652.049 337.423 647.433 338.477 642.472Z"/><path fill="#F2292F" d="M338.477 642.472L342.004 646.958L347.849 647.988C347.893 652.42 347.839 653.697 348.694 657.992C361.682 664.561 367.2 662.278 368.405 679.554C367.937 683.994 367.511 688.438 367.127 692.886C366.014 696.494 364.192 701.388 363.295 704.764L362.013 705.941C354.768 707.521 347.391 709.906 340.608 706.127C333.382 698.2 329.638 676.896 321.635 668.005C318.797 664.852 318.031 664.427 313.98 664.19C317.607 660.837 329.212 657.97 334.447 656.766C336.315 652.049 337.423 647.433 338.477 642.472Z"/><path fill="#401111" d="M367.127 692.886C368.997 694.699 373.954 707.121 376.313 711.089C380.182 717.598 384.61 718.412 388.157 722.556C384.666 722.141 366.196 719.671 364.064 718.337L362.449 717.592L363.345 716.684C363.633 711.66 359.574 710.888 362.013 705.941L363.295 704.764C364.192 701.388 366.014 696.494 367.127 692.886Z"/><path fill="#501112" d="M362.013 705.941L363.295 704.764C363.934 709.43 363.956 713.65 364.064 718.337L362.449 717.592L363.345 716.684C363.633 711.66 359.574 710.888 362.013 705.941Z"/><path fill="#852323" d="M340.608 706.127C347.391 709.906 354.768 707.521 362.013 705.941C359.574 710.888 363.633 711.66 363.345 716.684L362.449 717.592C356.446 716.174 341.345 713.157 340.608 706.127Z"/><path fill="#F2292F" d="M318.725 703.577C319.407 705.299 323.649 714.463 323.693 715.07C326.026 716.437 330.782 724.095 334.082 725.785C349.626 733.74 371.541 730.632 388.412 730.318C385.942 735.621 367.086 741.363 360.775 744.702C367.103 746.997 373.263 749.211 379.302 752.198C379.632 752.362 381.422 751.346 381.763 751.14C383.082 751.55 384.678 753.564 385.005 754.875L381.11 753.65L380.624 753.905L383.371 755.436C382.043 756.517 377.294 754.114 375.306 754.246C368.695 752.433 349.292 744.141 342.944 740.862C345.095 739.76 346.886 738.68 348.949 737.444C334.036 740.547 332.993 746.652 320.759 753.474C315.365 756.482 311.492 755.497 306.187 753.768C305.413 753.113 301.932 751.197 300.858 750.576C301.014 748.695 301.861 745.467 302.308 743.522C305.942 735.151 310.726 727.503 314.07 719.124C315.507 715.523 316.762 709.966 317.713 706.073C317.902 705.018 318.23 704.591 318.725 703.577Z"/><path fill="#68292B" d="M318.725 703.577C319.407 705.299 323.649 714.463 323.693 715.07L322.447 717.794C316.578 723.607 312.538 735.124 307.967 742.829L302.308 743.522C305.942 735.151 310.726 727.503 314.07 719.124C315.507 715.523 316.762 709.966 317.713 706.073C317.902 705.018 318.23 704.591 318.725 703.577Z"/><path fill="#501112" d="M318.725 703.577C319.407 705.299 323.649 714.463 323.693 715.07L322.447 717.794C321.478 714.912 319.245 711.71 318.565 708.729C318.215 707.196 318.336 707.548 317.713 706.073C317.902 705.018 318.23 704.591 318.725 703.577Z"/><defs><linearGradient id="gradient_5" gradientUnits="userSpaceOnUse" x1="396.17242" y1="783.74854" x2="415.81955" y2="781.5874"><stop offset="0" stop-color="#711C1E"/><stop offset="1" stop-color="#A92725"/></linearGradient></defs><path fill="url(#gradient_5)" d="M397.031 754.383C400.672 752.555 404.362 750.829 408.1 749.208C412.993 754.451 414.789 757.394 414.583 764.775C414.337 773.636 411.917 781.304 410.201 789.862C408.463 798.527 406.676 806.937 404.668 815.543L404.189 815.939L403.508 815.54C403.159 814.145 403.049 812.507 401.718 811.932C399.995 813.78 399.648 818.375 399.347 820.945L398.834 821.196C397.655 816.392 401.652 795.863 402.543 789.919C403.771 781.728 404.464 774.07 404.013 765.587C403.704 759.775 401.566 758.322 397.031 754.383Z"/><path fill="#912121" d="M384.955 844.49C389.429 843.782 394.765 843.72 399.318 843.812C404.81 846.903 421.044 859.535 425.021 863.925L425.448 865.308L424.86 866.131C420.89 866.946 404.936 863.229 399.245 862.433C391.931 860.854 392.579 862.511 384.47 858.529C384.254 853.456 385.138 849.149 384.955 844.49Z"/><defs><linearGradient id="gradient_6" gradientUnits="userSpaceOnUse" x1="575.17419" y1="754.96112" x2="553.02496" y2="840.70349"><stop offset="0" stop-color="#B01A1D"/><stop offset="1" stop-color="#FF1F26"/></linearGradient></defs><path fill="url(#gradient_6)" d="M452.431 726.99L452.505 727.725C451.021 729.201 450.784 729.375 448.996 730.491C460.76 733.666 472.863 732.343 484.813 733.951C497.885 735.71 511.162 740.255 524.381 741.822C527.904 742.24 530.927 747.524 533.821 748.848C534.929 749.362 539.176 746.393 540.693 746.645C538.644 748.109 514.099 758.076 510.674 759.227C518.184 770.138 526.543 769.072 538.157 772.811C540.409 773.536 543.335 773.035 544.903 773.426L544.921 776.851L545.194 776.542C547.257 777.948 548.053 778.873 550.629 778.319C551.797 777.371 552.434 775.101 553.632 775.089C574.931 774.873 596.82 780.416 617.719 784.457C620.651 785.027 624.692 784.36 626.967 784.851C636.092 786.822 645.002 792.585 654.352 791.207C654.948 791.119 655.282 791.27 655.959 791.422C657.192 793.76 654.806 794.085 656.675 796.27C655.995 795.53 655.773 794.476 656.098 793.525C656.423 792.573 657.242 791.875 658.234 791.705C659.225 791.535 660.23 791.92 660.853 792.71C666.072 789.307 684.89 791.504 691.096 787.036C692.739 785.853 692.538 784.843 692.995 782.78C693.021 783.132 693.039 783.485 693.05 783.838C693.653 803.023 692.6 824.252 693.031 842.763C693.927 881.325 669.282 874.063 644.285 862.926C638.443 860.795 632.476 858.643 626.63 856.555C578.791 839.475 531.012 822.18 483.235 804.905C476.17 802.351 468.856 800.918 461.804 797.869C457.41 796.012 453.438 793.285 450.125 789.852C436.954 776.448 436.82 762.429 437.066 745.23C437.561 742.216 437.406 738.41 437.39 735.299C441.976 732.841 448.582 730.03 452.431 726.99Z"/><path fill="#F84A49" d="M656.675 796.27C655.995 795.53 655.773 794.476 656.098 793.525C656.423 792.573 657.242 791.875 658.234 791.705C659.225 791.535 660.23 791.92 660.853 792.71C661.769 793.869 661.604 795.544 660.479 796.502C659.355 797.46 657.675 797.358 656.675 796.27Z"/><defs><linearGradient id="gradient_7" gradientUnits="userSpaceOnUse" x1="811.86609" y1="473.28082" x2="580.59302" y2="547.82605"><stop offset="0" stop-color="#FC3539"/><stop offset="1" stop-color="#DB6463"/></linearGradient></defs><path fill="url(#gradient_7)" d="M581.809 174.838L585.219 175.619C589.368 176.561 599.688 180.933 604.405 182.648L649.828 199.157C654.774 193.7 659.705 195.854 665.649 194.476C669.916 193.486 675.979 188.714 680.041 186.709C681.45 186.013 682.822 186.031 684.528 185.487L684.823 184.822L682.373 183.815L682.87 183.238C687.649 184.961 694.453 187.35 698.814 189.735C728.666 203.648 736.35 219.633 735.191 252.247C734.704 261.815 735.278 271.306 734.938 280.783C735.368 287.403 734.99 295.181 734.921 301.894C734.657 327.638 735.304 353.507 733.508 379.19C733.815 386.898 733.47 395.589 733.464 403.405L733.506 446.75C733.435 456.829 734.108 468.721 733.717 478.439C732.867 474.911 734.371 468.051 732.159 461.739C731.936 464.505 732.27 472.163 731.65 473.964C731.006 478.19 732.163 479.451 729.104 483.224C725.815 487.281 721.976 487.567 717.185 488.079C716.434 472.699 716.948 462.061 717.06 446.999L717.002 408.291C717.022 401.817 717.525 382.514 716.566 377.225C716.114 386.576 716.608 396.027 716.22 405.372C715.284 403.343 716.669 401.783 715.905 399.3C714.032 399.722 713.572 399.718 711.969 400.851C710.04 409.006 712.287 433.384 711.787 442.683C711.613 445.927 712.906 448.637 711.624 452.298C711.303 449.016 710.001 430.33 711.023 428.271L710.494 428.062C710.105 430.211 709.934 430.562 708.646 432.332C708.491 440.289 709.057 467.837 707.563 474.175C706.817 565.851 706.562 657.53 706.799 749.208L706.941 816.368C707.115 839.546 711.288 863.216 694.478 881.679C691.529 881.398 688.629 881.711 686.849 879.316C698.726 870.874 700.915 862.51 701.205 848.467C701.454 836.407 701.069 824.436 701.035 812.393L701.01 739.224L701.064 522.037L701.214 344.992C701.18 317.157 701.51 289.213 700.823 261.36C700.67 255.156 699.921 250.162 697.871 244.267C694.542 234.695 684.754 221.314 676.752 215.359C669.324 209.832 655.738 206.008 647.335 202.746C635.558 197.711 623.252 193.669 611.419 188.841C602.306 185.123 591.022 182.214 582.444 178.064L582.512 177.481L584.017 177.691L584.22 177.212C581.672 175.906 584.61 176.868 581.809 174.838Z"/><path fill="#852323" d="M735.191 252.247C734.704 261.815 735.278 271.306 734.938 280.783C735.368 287.403 734.99 295.181 734.921 301.894C734.657 327.638 735.304 353.507 733.508 379.19C733.815 386.898 733.47 395.589 733.464 403.405L733.506 446.75C733.435 456.829 734.108 468.721 733.717 478.439C732.867 474.911 734.371 468.051 732.159 461.739C731.936 464.505 732.27 472.163 731.65 473.964C731.006 478.19 732.163 479.451 729.104 483.224C725.815 487.281 721.976 487.567 717.185 488.079C716.434 472.699 716.948 462.061 717.06 446.999L717.002 408.291C717.022 401.817 717.525 382.514 716.566 377.225C716.114 386.576 716.608 396.027 716.22 405.372C715.284 403.343 716.669 401.783 715.905 399.3C714.032 399.722 713.572 399.718 711.969 400.851C710.04 409.006 712.287 433.384 711.787 442.683C711.613 445.927 712.906 448.637 711.624 452.298C711.303 449.016 710.001 430.33 711.023 428.271L710.494 428.062C710.105 430.211 709.934 430.562 708.646 432.332C708.491 440.289 709.057 467.837 707.563 474.175C707.08 467.634 707.501 455.437 707.531 448.42L707.667 397.105L707.431 332.307C707.27 312.911 706.888 291.37 707.995 272.064C707.803 269.197 708.068 261.635 709.508 259.3C712.347 259.29 708.957 260.03 711.726 261.444C716.607 259.729 720.565 259.02 725.433 256.612C728.565 255.062 732.028 252.567 735.191 252.247Z"/><defs><linearGradient id="gradient_8" gradientUnits="userSpaceOnUse" x1="714.9975" y1="427.07953" x2="732.88605" y2="427.91504"><stop offset="0" stop-color="black"/><stop offset="1" stop-color="#200203"/></linearGradient></defs><path fill="url(#gradient_8)" d="M716.566 377.225C716.605 374.587 716.413 373.51 718.404 371.62C721.662 368.527 727.265 367.481 731.559 366.753C731.661 379.244 731.322 391.736 731.903 404.207L732.526 406.213C733.638 401.963 731.599 381.513 733.508 379.19C733.815 386.898 733.47 395.589 733.464 403.405L733.506 446.75C733.435 456.829 734.108 468.721 733.717 478.439C732.867 474.911 734.371 468.051 732.159 461.739C731.936 464.505 732.27 472.163 731.65 473.964C731.006 478.19 732.163 479.451 729.104 483.224C725.815 487.281 721.976 487.567 717.185 488.079C716.434 472.699 716.948 462.061 717.06 446.999L717.002 408.291C717.022 401.817 717.525 382.514 716.566 377.225Z"/><path fill="#784943" d="M731.903 404.207L732.526 406.213C733.638 401.963 731.599 381.513 733.508 379.19C733.815 386.898 733.47 395.589 733.464 403.405L733.506 446.75C733.435 456.829 734.108 468.721 733.717 478.439C732.867 474.911 734.371 468.051 732.159 461.739C731.936 464.505 732.27 472.163 731.65 473.964C730.997 452.641 731.667 425.684 731.903 404.207Z"/><path fill="#68292B" d="M721.089 400.878C721.07 398.409 720.908 395.802 721.021 393.352C721.551 381.822 717.036 376.257 729.638 371.396C730.261 390.258 729.877 408.732 729.495 427.564C730.246 443.326 729.567 462.972 729.483 479.031C726.275 481.081 725.07 481.591 721.538 483.048C721.318 456.168 720.365 427.729 721.089 400.878Z"/><path fill="#F2292F" d="M721.089 400.878C721.07 398.409 720.908 395.802 721.021 393.352C721.551 381.822 717.036 376.257 729.638 371.396C730.261 390.258 729.877 408.732 729.495 427.564C725.673 426.271 724.534 425.522 721.666 422.709C721.184 415.503 721.79 408.126 721.089 400.878Z"/><path fill="#F2292F" d="M735.191 252.247C734.704 261.815 735.278 271.306 734.938 280.783C734.043 277.492 734.39 257.205 734.5 252.825C728.526 255.543 726.776 258.688 721.473 261.15C720.933 261.401 720.441 260.602 719.84 259.998C709.098 260.676 710.084 263.821 707.995 272.064C707.803 269.197 708.068 261.635 709.508 259.3C712.347 259.29 708.957 260.03 711.726 261.444C716.607 259.729 720.565 259.02 725.433 256.612C728.565 255.062 732.028 252.567 735.191 252.247Z"/><path fill="#AE3436" d="M682.87 183.238C687.649 184.961 694.453 187.35 698.814 189.735C688.89 196.731 661.366 202.26 649.828 199.157C654.774 193.7 659.705 195.854 665.649 194.476C669.916 193.486 675.979 188.714 680.041 186.709C681.45 186.013 682.822 186.031 684.528 185.487L684.823 184.822L682.373 183.815L682.87 183.238Z"/><path fill="#F2292F" d="M727.517 241.57L733.487 244.292C726.694 247.274 720.458 248.745 713.595 251.367C712.177 251.841 711.65 251.951 710.226 252.234L709.444 251.677C708.668 246.656 723.409 243.002 727.517 241.57Z"/><path fill="#852323" d="M519.65 836.086C524.96 837.82 529.405 839.229 534.466 841.714L535.425 841.765C569.268 852.829 602.133 865.93 635.665 877.78C641.859 879.969 645.437 882.598 652.398 884.761C657.87 886.232 664.348 887.403 669.431 888.857C663.387 891.627 653.349 893.543 646.557 894.863C642.464 895.631 633.401 893.965 629.023 893.07C625.178 893.827 618.572 895.363 614.917 895.002C613.976 897.096 614.165 898.888 614.122 901.214C612.111 901.713 605.636 902.099 603.271 902.64C596.765 904.128 565.122 909.157 560.216 906.34L560.03 905.459C561.314 904.331 563.989 903.875 565.751 903.415C564.244 902.893 527.035 902.415 522.909 902.671C506.466 903.693 490.812 901.095 474.837 900.971L474.052 901.041C467.448 903.1 419.121 900.549 409.502 899.663C406.177 899.357 394.403 896.98 390.963 895.449L391.32 894.746C392.511 894.833 392.993 894.585 394.095 894.149C391.14 894.212 389.43 893.767 386.576 893.193C394.22 886.958 420.055 883.293 431.095 880.194C438.512 878.186 445.666 875.31 452.409 871.627C458.325 868.462 463.73 864.425 468.444 859.649C477.026 850.783 477.892 844.707 490 838.963C498.724 834.824 517.58 838.974 520.443 837.298L519.65 836.086Z"/><path fill="#401111" d="M595.177 895.1C601.165 895.212 607.51 894.717 613.583 894.601L614.917 895.002C613.976 897.096 614.165 898.888 614.122 901.214C612.111 901.713 605.636 902.099 603.271 902.64C596.765 904.128 565.122 909.157 560.216 906.34L560.03 905.459C561.314 904.331 563.989 903.875 565.751 903.415C564.244 902.893 527.035 902.415 522.909 902.671C506.466 903.693 490.812 901.095 474.837 900.971C479 900.09 486.159 900.36 490.744 899.841C515.273 897.066 540.323 899.626 564.855 898.384C575.71 896.103 584.174 895.18 595.177 895.1Z"/><path fill="#501112" d="M564.855 898.384C575.71 896.103 584.174 895.18 595.177 895.1L595.531 897.977C594.43 899.662 594.302 899.341 591.892 900.01C584.543 900.867 571.471 901.631 564.855 898.384Z"/><path fill="#68292B" d="M595.177 895.1C601.165 895.212 607.51 894.717 613.583 894.601L614.917 895.002C613.976 897.096 614.165 898.888 614.122 901.214C608.398 899.682 605.031 902.308 600.729 901.509L599.811 899.917L599.188 900.047L598.582 902.746L597.946 903.015C596.841 901.845 596.936 901.741 596.212 900.294L591.892 900.01C594.302 899.341 594.43 899.662 595.531 897.977L595.177 895.1Z"/><path fill="#501112" d="M595.177 895.1C601.165 895.212 607.51 894.717 613.583 894.601C609.757 898.438 599.499 895.165 595.531 897.977L595.177 895.1Z"/><path fill="#68292B" d="M519.65 836.086C524.96 837.82 529.405 839.229 534.466 841.714L534.053 842.361C533.04 841.955 529.28 840.051 528.685 839.964C522.928 839.186 516.664 838.506 510.92 838.292C509.206 838.228 506.508 845.636 503.474 846.132C490.334 848.281 480.161 854.887 468.612 860.998C465.931 862.417 461.906 867.636 458.804 869.144C441.325 880.174 415.296 885.754 394.762 889.686L392.381 892.349L392.517 892.787C399.94 895.874 418.592 896.576 426.91 896.748C430.969 896.832 438.351 896.774 442.003 898.017C448.688 897.955 469.22 897.721 474.052 901.041C467.448 903.1 419.121 900.549 409.502 899.663C406.177 899.357 394.403 896.98 390.963 895.449L391.32 894.746C392.511 894.833 392.993 894.585 394.095 894.149C391.14 894.212 389.43 893.767 386.576 893.193C394.22 886.958 420.055 883.293 431.095 880.194C438.512 878.186 445.666 875.31 452.409 871.627C458.325 868.462 463.73 864.425 468.444 859.649C477.026 850.783 477.892 844.707 490 838.963C498.724 834.824 517.58 838.974 520.443 837.298L519.65 836.086Z"/><path fill="#401111" d="M394.095 894.149C397.203 894.167 400.753 896.037 404.023 896.405C413.94 897.522 423.771 897.72 433.737 897.771C435.747 897.781 440.598 898.157 442.003 898.017C448.688 897.955 469.22 897.721 474.052 901.041C467.448 903.1 419.121 900.549 409.502 899.663C406.177 899.357 394.403 896.98 390.963 895.449L391.32 894.746C392.511 894.833 392.993 894.585 394.095 894.149Z"/><path fill="#912121" d="M652.398 884.761C657.87 886.232 664.348 887.403 669.431 888.857C663.387 891.627 653.349 893.543 646.557 894.863C642.464 895.631 633.401 893.965 629.023 893.07C630.559 891.843 633.951 891.179 635.96 890.687L635.835 890.111C643.589 888.404 650.174 889.174 657.627 887.415L657.684 887.021C655.712 886.279 654.301 885.669 652.398 884.761Z"/><path fill="#501112" d="M635.96 890.687C638.649 890.412 641.428 889.919 643.984 890.6L644.092 891.056C644.624 893.239 644.513 893.743 646.557 894.863C642.464 895.631 633.401 893.965 629.023 893.07C630.559 891.843 633.951 891.179 635.96 890.687Z"/><path fill="#68292B" d="M451.352 129.26C450.088 128.444 448.63 128.555 447.147 128.462C449.289 128.012 447.727 128.288 449.039 127.623C460.367 121.803 475.216 116.489 487.581 113.557C493.812 112.079 514.409 122.173 520.901 124.07C536.519 128.633 551.419 135.018 566.635 140.666L638.539 167.24C648.757 170.948 658.998 174.59 669.262 178.166C671.424 178.927 681.432 182.328 682.87 183.238L682.373 183.815L684.823 184.822L684.528 185.487C682.822 186.031 681.45 186.013 680.041 186.709C675.979 188.714 669.916 193.486 665.649 194.476C659.705 195.854 654.774 193.7 649.828 199.157L604.405 182.648C599.688 180.933 589.368 176.561 585.219 175.619L581.809 174.838C580.578 174.001 544.003 162.325 543.172 162.494L542.704 163.315C539.213 162.525 528.869 157.854 524.951 156.339L487.159 141.676C475.253 136.991 464.053 131.546 451.352 129.26Z"/><path fill="#F84A49" d="M536.375 837.152L545.465 840.455C558.694 844.718 574.517 850.374 587.814 855.135C594.484 858.158 605.374 861.434 612.26 864.101C623.021 868.268 658.139 882.619 667.531 881.733C675.748 883.859 679.392 883.466 686.849 879.316C688.629 881.711 691.529 881.398 694.478 881.679C687.391 887.503 678.342 889.129 669.431 888.857C664.348 887.403 657.87 886.232 652.398 884.761C645.437 882.598 641.859 879.969 635.665 877.78C602.133 865.93 569.268 852.829 535.425 841.765C535.478 839.583 535.306 838.94 536.375 837.152Z"/><path fill="#912121" d="M548.529 838.622C554.172 839.935 568.116 845.332 574.088 847.574C580.664 850.043 596.663 854.869 602.56 857.71C614.16 861.207 626.218 866.819 637.566 871.094C647.32 874.768 657.839 877.811 667.531 881.733C658.139 882.619 623.021 868.268 612.26 864.101C605.374 861.434 594.484 858.158 587.814 855.135C574.517 850.374 558.694 844.718 545.465 840.455L544.052 838.97L544.299 838.497C545.552 838.606 546.395 838.688 547.654 838.652L548.529 838.622Z"/><path fill="#AE3436" d="M487.422 820.472L488.55 820.151C490.157 821.14 501.677 825.116 503.35 825.422C505.356 826.128 515.822 829.469 516.892 829.995C518.131 830.591 519.31 831.22 520.623 831.617L516.511 832.456L516.392 832.939C517.714 834.05 518.264 834.261 519.086 835.707C506.664 831.781 500.377 826.305 485.422 825.098C486.355 823.438 487.146 822.356 487.422 820.472Z"/><path fill="#501112" d="M485.398 817.708C495.554 818.035 504.857 822.438 514.366 825.916C517.369 827.18 521.59 829.098 524.583 830.049C521 830.423 520.518 830.492 516.892 829.995C515.822 829.469 505.356 826.128 503.35 825.422C501.677 825.116 490.157 821.14 488.55 820.151L487.422 820.472C485.823 819.426 486.317 819.738 485.398 817.708Z"/><path fill="#F2292F" d="M542.704 163.315L543.172 162.494C544.003 162.325 580.578 174.001 581.809 174.838C584.61 176.868 581.672 175.906 584.22 177.212L584.017 177.691L582.512 177.481L582.444 178.064C569.261 172.977 556.014 168.06 542.704 163.315Z"/><path fill="#F2292F" d="M520.623 831.617C525.674 833.18 531.547 835.104 536.375 837.152C535.306 838.94 535.478 839.583 535.425 841.765L534.466 841.714C529.405 839.229 524.96 837.82 519.65 836.086L519.086 835.707C518.264 834.261 517.714 834.05 516.392 832.939L516.511 832.456L520.623 831.617Z"/><path fill="#912121" d="M516.892 829.995C520.518 830.492 521 830.423 524.583 830.049L548.529 838.622L547.654 838.652C546.395 838.688 545.552 838.606 544.299 838.497L544.052 838.97L545.465 840.455L536.375 837.152C531.547 835.104 525.674 833.18 520.623 831.617C519.31 831.22 518.131 830.591 516.892 829.995Z"/><path fill="#F06A69" d="M542.926 180.921C554.856 185.476 577.35 192.107 586.949 199.451C587.703 201.095 587.267 201.358 586.917 203.55C584.728 203.21 580.092 200.937 577.797 200.019C568.241 196.195 551.123 190.604 543.096 184.772C542.306 182.884 542.605 183.276 542.926 180.921Z"/><path fill="#68292B" d="M561.703 912.412C566.26 912.384 586.245 911.88 588.973 913.283C586.317 914.339 583.804 915.762 581.029 916.783C574.432 918.938 566.455 920.7 559.46 921.178C540.989 922.442 521.777 922.094 503.249 922.192C490.691 921.919 478.188 920.171 465.816 918.116C459.548 917.075 457.095 916.442 452.235 912.507C461.957 912.325 471.347 912.922 481.059 913.1C497.051 913.299 513.045 913.291 529.038 913.077C539.511 912.985 551.344 913.147 561.703 912.412Z"/><path fill="#AE3436" d="M296.414 175.417C314.286 170.952 316.849 189.945 309.996 200.275C309.595 200.888 309.173 201.488 308.731 202.073C302.927 204.389 300.484 205.498 294.055 203.395C285.512 200.6 278.523 186.536 287.13 180.168C290.783 177.399 291.678 175.703 296.188 175.531L296.414 175.417Z"/><path fill="#68292B" d="M296.414 175.417C314.286 170.952 316.849 189.945 309.996 200.275C309.595 200.888 309.173 201.488 308.731 202.073C302.927 204.389 300.484 205.498 294.055 203.395C285.512 200.6 278.523 186.536 287.13 180.168C288.017 184.708 288.148 192.171 290.176 195.358L291.386 196.007C293.798 196.819 297.364 198.195 299.804 198.527C309.091 199.791 309.011 187.08 309.143 181.13C311.547 174.777 299.915 175.687 296.414 175.417Z"/><path fill="#912121" d="M296.188 175.531L296.414 175.417C299.915 175.687 311.547 174.777 309.143 181.13C302.243 179.449 293.448 176.056 292.317 186.287C292.971 189.519 293.087 190.159 294.777 192.926C294.641 194.878 295.008 194.042 293.513 195.463L293.561 195.77L291.386 196.007L290.176 195.358C288.148 192.171 288.017 184.708 287.13 180.168C290.783 177.399 291.678 175.703 296.188 175.531Z"/><path fill="#852323" d="M287.13 180.168C290.783 177.399 291.678 175.703 296.188 175.531C295.217 176.489 294.828 176.605 293.545 177.072C290.972 182.132 286.638 192.335 293.513 195.463L293.561 195.77L291.386 196.007L290.176 195.358C288.148 192.171 288.017 184.708 287.13 180.168Z"/><path fill="#F84A49" d="M292.317 186.287C301.173 172.463 311.469 196.303 294.777 192.926C293.087 190.159 292.971 189.519 292.317 186.287Z"/><path fill="#912121" d="M360.169 613.896C374.216 631.874 356.421 657.989 339.046 634.702L338.352 633.123C332.359 634.599 331.189 628.89 330.037 624.623L334.179 622.353C337.238 625.2 338.417 625.885 342.085 627.549C351.912 623.604 353.424 621.743 360.169 613.896Z"/><path fill="#68292B" d="M936.793 59.0654C941.76 58.8534 944.243 59.567 948.916 60.8444C952.502 70.914 956.73 78.7458 944.131 84.763C942.066 85.3194 937.987 84.9816 935.682 84.9009C933.101 82.4806 931.627 80.7423 929.704 77.7989C929.057 69.9266 930.552 64.2586 936.793 59.0654Z"/><path fill="#F84A49" d="M943.763 65.0321C947.666 64.1536 950.901 68.1116 949.327 71.2343C947.803 73.6924 948.182 75.8607 945.288 78.0219C940.632 81.4978 936.375 77.6022 933.734 73.7798C935.943 67.1991 936.951 66.0846 943.763 65.0321Z"/><path fill="#501112" d="M943.763 65.0321C947.666 64.1536 950.901 68.1116 949.327 71.2343C947.602 68.992 946.042 66.7069 943.763 65.0321Z"/><path fill="#852323" d="M419.428 245.934C419.919 255.595 419.508 267.556 419.577 277.492L419.496 278.148C414.542 278.801 412.116 266.273 412.462 262.416C413.2 254.218 413.51 251.474 419.428 245.934Z"/><path fill="#F2292F" d="M333.109 421.458C321.31 429.531 318.886 409.04 328.94 408.881C331.383 408.842 334.088 411.671 335.528 413.56C335.564 416.539 336.118 419.89 333.109 421.458Z"/><path fill="#F84A49" d="M333.109 421.458C329.65 420.412 324.899 418.821 324.024 414.781C326.376 411.575 332.527 414.913 335.528 413.56C335.564 416.539 336.118 419.89 333.109 421.458Z"/><path fill="#F84A49" d="M826.903 638.501C827.543 638.486 830.175 638.403 830.603 638.593C837.932 641.844 835.674 648.225 830.636 651.437C820.443 651.938 819.71 643.195 826.903 638.501Z"/><path fill="#F84A49" d="M883.606 419.079C890.182 420.919 891.958 424.498 886.003 428.928C884.262 429.226 882.649 429.533 880.884 429.68C875.339 431.201 871.9 424.881 875.967 420.917C878.298 418.646 880.566 419.081 883.606 419.079Z"/><path fill="#401111" d="M883.606 419.079C890.182 420.919 891.958 424.498 886.003 428.928C884.262 429.226 882.649 429.533 880.884 429.68C882.767 427.182 883.423 425.936 883.584 422.796C882.894 420.648 883.027 421.479 883.606 419.079Z"/><path fill="#68292B" d="M883.584 422.796C885.772 423.046 885.34 422.674 886.795 423.864C887.227 425.72 886.571 427.061 886.003 428.928C884.262 429.226 882.649 429.533 880.884 429.68C882.767 427.182 883.423 425.936 883.584 422.796Z"/><path fill="#F06A69" d="M153.889 783.134C162.186 781.98 164.033 788.624 158.253 793.466C150.645 794.383 148.266 787.85 153.889 783.134Z"/><path fill="#2D2121" d="M561.703 912.412C568.491 910.158 576.63 912.515 582.608 911.577C595.895 909.491 608.442 908.014 622.015 908.508C620.181 908.694 619.091 908.423 618.114 909.432L618.338 910.05C608.658 911.1 598.212 910.575 588.973 913.283C586.245 911.88 566.26 912.384 561.703 912.412Z"/><path fill="#F84A49" d="M158.394 400.113C163.05 400.289 164.057 403.257 162.345 407.138C161.343 409.408 159.355 409.863 157.216 410.662C150.563 407.962 150.513 400.951 158.394 400.113Z"/><path fill="#F84A49" d="M89.6186 909.427C97.5127 909.141 97.1215 917.1 91.5796 919.598C83.9406 918.675 83.8916 912.924 89.6186 909.427Z"/><path fill="#F84A49" d="M108.206 74.5388C110.747 74.2243 113.082 75.9784 113.487 78.5072C113.892 81.036 112.223 83.4317 109.71 83.9271C108.003 84.2638 106.248 83.6414 105.134 82.3042C104.021 80.967 103.726 79.1285 104.366 77.5103C105.006 75.8921 106.479 74.7525 108.206 74.5388Z"/><path fill="#F06A69" d="M883.173 911.208C885.549 911.729 884.706 911.918 886.211 913.003C886.247 913.029 890.651 912.254 891.271 912.419C892.311 912.696 891.42 911.981 892.604 913.243C892.98 915.532 892.633 916.148 892.005 918.471C890.868 919.583 891.331 919.202 889.745 919.817C886.048 919.423 883.177 914.692 883.173 911.208Z"/><path fill="#F84A49" d="M947.202 789.826C954.16 789.852 954.985 792.712 951.624 798.2C950.06 798.409 948.449 798.244 947.197 797.228C945.689 794.645 946.508 792.663 947.202 789.826Z"/><path fill="#F06A69" d="M395.897 338.181C396.718 337.824 397.67 337.965 398.352 338.546C399.034 339.126 399.326 340.043 399.105 340.911C398.884 341.779 398.188 342.444 397.312 342.628C396.135 342.873 394.962 342.189 394.597 341.043C394.233 339.897 394.794 338.661 395.897 338.181Z"/><path fill="#F06A69" d="M375.135 222.189C376.697 222.987 376.913 222.981 378.13 224.295C378.251 226.304 378.161 225.727 376.777 227.811C375.696 228.244 376.271 228.117 374.952 227.831L374.312 226.756C374.098 224.436 374.147 224.362 375.135 222.189Z"/><path fill="#F06A69" d="M208.396 196.942C210.775 196.877 210.967 196.754 212.459 198.434C212.494 200.277 212.681 199.407 211.744 201.108C209.519 201.006 208.979 201.117 207.466 199.84C207.479 197.888 207.29 198.848 208.396 196.942Z"/><path d="M627.451 907.804C628.857 908.083 630.125 908.215 631.399 908.8C627.67 909.252 621.937 910.123 618.338 910.05L618.114 909.432C619.091 908.423 620.181 908.694 622.015 908.508L627.451 907.804Z"/><path fill="#2D2121" d="M391.412 908.781C393.827 908.475 402.351 907.546 403.803 909.291C402.045 910.445 393.488 909.506 391.412 908.781Z"/><path fill="#2D2121" d="M627.451 907.804C631.288 907.27 633.104 906.672 636.712 908.067L636.745 908.429L636.481 908.043C635.2 909.164 633.129 908.988 631.399 908.8C630.125 908.215 628.857 908.083 627.451 907.804Z"/></svg>