<?xml version="1.0" encoding="utf-8" ?><svg xmlns="http://www.w3.org/2000/svg" xmlns:xlink="http://www.w3.org/1999/xlink" width="1024" height="1024" viewBox="0 0 1024 1024"><path fill="#010101" d="M0 0L1024 0L1024 1024L0 1024L0 0Z"/><defs><linearGradient id="gradient_0" gradientUnits="userSpaceOnUse" x1="417.88113" y1="443.68198" x2="705.20068" y2="457.633"><stop offset="0" stop-color="#0F0B0A"/><stop offset="1" stop-color="#361A19"/></linearGradient></defs><path fill="url(#gradient_0)" d="M432.03 676.821C431.479 671.233 431.863 660.894 431.864 654.811L431.969 611.355L432.466 476.673L431.852 270.244L430.902 207.375C430.751 196.425 430.574 185.717 430.816 174.781C431.106 161.622 432.347 144.623 449.007 142.978C454.017 142.483 474.234 148.663 478.179 151.601C479.291 154.099 479.374 158.132 480.688 161.749C485.659 175.427 494.484 181.382 507.065 187.711C509.358 188.865 515.332 189.903 518.275 190.96C525.276 193.474 532.226 196.034 539.157 198.69L581.417 214.734C588.691 217.567 594.576 220.01 602.262 222.433C609.788 224.806 618.171 229.701 626.568 226.171C634.1 222.884 635.91 215.548 636.375 208.304C646.684 210.706 666.839 219.659 675.234 225.763C685.317 233.095 693.012 251.574 693.453 263.886C693.954 277.889 693.367 292.176 693.411 306.299L692.984 417.251L693.004 730.761L692.976 800.747C692.982 811.422 693.423 833.798 692.608 843.752C692.718 846.614 692.706 851.948 692.038 854.718C691.502 861.126 686.889 869.131 680.406 870.839C666.588 874.159 654.322 866.148 641.698 861.691L556.44 831.162L483.328 804.7C471.149 800.222 460.436 799.841 450.677 790.003C437.245 776.462 437.058 763.973 437.065 746.104C437.51 742.817 437.398 738.5 437.409 735.097C441.928 733.036 449.12 730.136 452.471 726.773C454.92 717.98 456.704 702.71 459.504 694.955C459.388 693.797 461.493 685.168 461.802 683.268C462.502 678.95 462.512 676.982 462.254 672.504C457.821 672.087 443.975 680.381 438.173 682.584C435.937 683.732 433.693 684.862 431.44 685.976C432.076 682.478 432.015 680.373 432.03 676.821Z"/><defs><linearGradient id="gradient_1" gradientUnits="userSpaceOnUse" x1="579.8374" y1="719.78992" x2="554.06726" y2="847.02551"><stop offset="0" stop-color="#680C0B"/><stop offset="1" stop-color="#F40B0F"/></linearGradient></defs><path fill="url(#gradient_1)" d="M452.471 726.773C454.92 717.98 456.704 702.71 459.504 694.955L463.033 696.81L463.912 697.104C470.862 699.496 478.601 704.109 485.866 705.67C498.98 708.489 512.336 709.833 525.253 713.742C527.941 714.555 531.048 714.746 533.723 715.493C539.098 715.581 546.174 716.646 551.704 717.163C553.279 717.831 556.633 717.902 558.383 717.749C566.152 717.07 579.128 718.368 584.919 724.429C585.178 725.278 585.576 726.083 584.828 726.947C582.248 729.929 571.677 734.166 568.053 735.445L568.295 736.218C566.1 736.925 563.016 737.261 562.686 739.676C567.843 746.455 587.384 753.511 595.701 753.641C620.446 754.027 645.414 758.479 670.098 756.091C673.687 755.744 675.947 755.224 676.262 751.173C677.133 748.733 670.299 747.188 669.623 745.728C666.895 739.839 646.521 727.844 646.823 723.864C660.012 726.59 672.701 733.53 686.199 734.185C688.001 734.272 690.463 731.098 693.004 730.761L692.976 800.747C692.982 811.422 693.423 833.798 692.608 843.752C692.718 846.614 692.706 851.948 692.038 854.718C691.502 861.126 686.889 869.131 680.406 870.839C666.588 874.159 654.322 866.148 641.698 861.691L556.44 831.162L483.328 804.7C471.149 800.222 460.436 799.841 450.677 790.003C437.245 776.462 437.058 763.973 437.065 746.104C437.51 742.817 437.398 738.5 437.409 735.097C441.928 733.036 449.12 730.136 452.471 726.773Z"/><defs><linearGradient id="gradient_2" gradientUnits="userSpaceOnUse" x1="580.68036" y1="801.4043" x2="592.16382" y2="717.97083"><stop offset="0" stop-color="#AE090B"/><stop offset="1" stop-color="#440E0C"/></linearGradient></defs><path fill="url(#gradient_2)" d="M568.295 736.218C566.1 736.925 563.016 737.261 562.686 739.676C567.843 746.455 587.384 753.511 595.701 753.641C620.446 754.027 645.414 758.479 670.098 756.091C673.687 755.744 675.947 755.224 676.262 751.173C677.133 748.733 670.299 747.188 669.623 745.728C666.895 739.839 646.521 727.844 646.823 723.864C660.012 726.59 672.701 733.53 686.199 734.185C688.001 734.272 690.463 731.098 693.004 730.761L692.976 800.747C692.982 811.422 693.423 833.798 692.608 843.752C691.261 831.1 692.957 809.169 692.224 795.014C691.903 796.053 692.004 803.593 692 805.211C688.852 806.295 682.255 808.5 679.058 808.794C666.541 809.947 652.537 811.534 640.103 809.948C626.914 808.266 614.115 804.937 601.188 802.041C595.477 800.698 589.222 800.773 583.564 799.31C571.012 796.173 555.87 790.288 542.865 790.523C525.352 791.17 507.949 789.701 491.142 784.535C486.166 783.006 474.227 781.124 473.369 775.141C473.663 775.017 473.957 774.894 474.25 774.771C483.156 772.284 491.843 767.534 500.238 763.95L549.492 743.162C555.212 740.788 562.402 737.158 568.053 735.445L568.295 736.218Z"/><path fill="#EB4542" d="M545.833 771.883C547.671 771.855 548.933 771.606 550.461 772.554C551.677 774.827 551.086 775.838 550.366 778.493C545.031 779.371 545.329 775.652 545.833 771.883Z"/><path fill="#E72120" d="M657.765 791.895C659.188 791.407 660.742 792.135 661.278 793.541C661.814 794.947 661.14 796.525 659.754 797.109C658.813 797.506 657.732 797.357 656.933 796.723C656.134 796.088 655.744 795.068 655.918 794.062C656.091 793.056 656.799 792.225 657.765 791.895Z"/><path fill="#5F0F0F" d="M463.033 696.81L463.912 697.104C470.862 699.496 478.601 704.109 485.866 705.67C498.98 708.489 512.336 709.833 525.253 713.742C527.941 714.555 531.048 714.746 533.723 715.493C530.922 716.352 527.485 715.263 524.353 715.265C517.802 715.808 518.871 714.706 513.915 712.754C502.296 708.179 486.509 708.355 474.511 703.505C469.091 701.315 467.067 699.976 463.162 697.801L463.033 696.81Z"/><path fill="#F7211F" d="M680.406 870.839L679.792 870.4C680.826 869.656 688.859 862.221 689.292 861.392C690.496 859.089 691.52 854.191 691.551 851.486L691.554 850.671C691.937 851.458 691.965 853.693 692.038 854.718C691.502 861.126 686.889 869.131 680.406 870.839Z"/><path fill="#5F0F0F" d="M551.704 717.163C562.374 715.951 577.774 718.185 589.162 717.306C593.815 716.947 611.501 714.272 614.606 715.674L614.613 716.471C609.808 721.042 584.397 728.219 576.82 732.811C575.415 733.663 570.059 735.728 568.295 736.218L568.053 735.445C571.677 734.166 582.248 729.929 584.828 726.947C585.576 726.083 585.178 725.278 584.919 724.429C579.128 718.368 566.152 717.07 558.383 717.749C556.633 717.902 553.279 717.831 551.704 717.163Z"/><path fill="#5F0F0F" d="M432.03 676.821C434.303 680.352 434.948 680.086 438.173 682.584C435.937 683.732 433.693 684.862 431.44 685.976C432.076 682.478 432.015 680.373 432.03 676.821Z"/><defs><linearGradient id="gradient_3" gradientUnits="userSpaceOnUse" x1="459.99619" y1="440.24774" x2="649.11365" y2="432.14038"><stop offset="0" stop-color="#BC0F15"/><stop offset="1" stop-color="#FF1314"/></linearGradient></defs><path fill="url(#gradient_3)" d="M463.754 335.368C473.764 325.092 490.901 336.4 502.227 340.114C551.553 356.285 599.993 375.345 648.527 393.713C648.743 401.453 648.303 409.235 648.265 417L648.383 471.856C648.474 481.789 648.711 491.72 649.093 501.646C649.56 515.163 652.429 533.166 639.101 541.39C629.151 541.986 622.942 539.552 613.825 535.809C581.178 522.404 548.718 509.655 515.752 496.905C502.108 491.628 482.495 487.502 470.044 479.692C465.035 476.551 459.738 463.294 460.047 457.448C461.417 421.378 458.087 382.405 459.954 346.684C460.009 342.346 461.193 338.826 463.754 335.368Z"/><path fill="#C41516" d="M463.754 335.368C465.565 342.181 461.913 342.363 459.954 346.684C460.009 342.346 461.193 338.826 463.754 335.368Z"/><path fill="#330606" d="M629.92 411.461L631.314 411.684C617.22 419.897 605.293 429.807 591.253 438.126C588.937 439.499 582.954 441.82 580.241 443.383C580.077 443.999 579.912 444.615 579.748 445.231C579.135 446.133 575.966 447.911 575.137 448.364C572.048 449.999 556.913 459.498 554.059 457.678C547.688 453.617 536.328 439.87 532.438 432.694C531.601 431.152 531.529 430.269 532 428.984C536.067 428.137 544.925 446.681 550.632 447.681C553.787 448.368 559.328 446.695 562.328 445.328C579.703 437.41 596.289 427.703 613.538 419.479C619.054 416.849 624.564 414.42 629.92 411.461Z"/><path fill="#E72120" d="M462.625 344.66C466.105 346.649 476.86 365.194 480.086 369.691C482.013 372.376 487.533 379.777 488.543 382.434C487.826 382.276 469.154 359.496 467.394 356.273C464.81 351.538 461.913 350.329 462.625 344.66Z"/><path fill="#5F0F0F" d="M629.92 411.461C632.119 410.126 637.88 406.447 640.381 406.591C637.094 408.716 634.248 409.814 631.314 411.684L629.92 411.461Z"/><path fill="#8C1717" d="M476.805 614.245C479.167 615.363 485.145 617.349 487.86 618.355C497.096 621.796 506.376 625.118 515.698 628.32L580.871 652.09C588.74 654.975 603.751 659.198 610.128 663.621C610.807 665.211 610.44 666.736 610.272 668.512C594.003 663.625 574.774 656.032 558.705 650.063L498.991 628.55C491.295 625.793 483.863 622.512 476.081 620.078C476.766 617.435 476.896 616.954 476.805 614.245Z"/><path fill="#8C1717" d="M609.864 641.961C604.002 641.175 588.207 633.927 581.754 631.529L527.535 611.843C517.201 607.99 507.104 604.663 496.632 601.287C491.36 599.587 479.617 596.852 476.812 592.013C476.843 590.233 476.581 591.038 477.755 589.563C484.534 589.493 505.307 598.393 512.418 600.923C544.633 612.105 576.654 623.841 608.467 636.124C607.468 639.191 607.682 639.609 609.864 641.961Z"/><path fill="#C41516" d="M520.049 577.652C533.919 583.415 548.538 587.25 562.42 592.421C585.479 601.012 608.814 608.514 631.747 617.351C636.917 619.344 664.715 625.783 663.265 632.686C662.022 633.455 660.216 633.375 658.904 632.882C648.108 628.83 637.071 624.672 626.284 620.645L555.047 594.847C542.403 590.18 531.39 584.999 517.845 581.364C518.139 579.492 518.768 578.807 520.049 577.652Z"/><path fill="#5F0F0F" d="M588.451 325.032C590.237 325.184 637.803 342.433 640.59 343.955C640.356 351.679 640.973 358.701 640.507 366.835C634.781 364.718 628.5 363.04 622.738 360.792C616.977 358.543 611.33 355.98 605.653 353.515C603.99 352.876 586.878 347.136 586.942 347.189L588.063 346.968C589.881 347.698 591.848 347.866 593.346 348.539C596.982 350.172 599.39 350.893 603.277 351.642C606.606 352.283 612.657 357.864 616.237 355.859C619.05 354.283 619.305 350.359 620.172 347.653C621.313 344.679 622.707 342.223 623.606 339.149C622.302 337.497 593.847 327.537 589.217 325.394L588.451 325.032Z"/><path fill="#E72120" d="M608.467 636.124C626.049 641.766 643.68 648.553 660.794 655.567C661.97 656.048 663.16 657.831 663.444 659.051C662.641 659.937 662.585 659.902 661.437 659.971C655.161 660.347 619.883 644.485 609.864 641.961C607.682 639.609 607.468 639.191 608.467 636.124Z"/><path fill="#5F0F0F" d="M517.845 581.364C515.393 580.763 508.273 577.425 504.813 576.269C496.457 573.342 487.8 571.084 479.543 567.906C477.547 567.138 476.823 565.745 477.128 563.805C479.943 561.174 485.32 564.414 488.427 565.921C495.116 569.165 514.675 573.719 520.049 577.652C518.768 578.807 518.139 579.492 517.845 581.364Z"/><path fill="#EB4542" d="M514.957 697.689C516.845 698.609 517.727 699.074 518.434 700.965C518.385 702.843 517.904 703.305 516.913 704.889C515.025 704.129 513.675 703.617 512.975 701.537C513.139 699.557 513.674 699.207 514.957 697.689Z"/><path fill="#1E0202" d="M338.344 643.077C339.635 644.362 341.046 645.838 342.368 647.061L347.804 648.191C347.901 651.56 347.923 654.729 348.399 658.07C358.854 663.193 367.094 662.541 368.038 676.856C368.647 685.543 386.133 705.541 392.95 711.53C393.524 708.776 394.316 706.605 395.219 703.964C403.913 699.225 424.452 690.711 431.44 685.976C433.693 684.862 435.937 683.732 438.173 682.584C443.975 680.381 457.821 672.087 462.254 672.504C462.512 676.982 462.502 678.95 461.802 683.268C461.493 685.168 459.388 693.797 459.504 694.955C456.704 702.71 454.92 717.98 452.471 726.773C449.12 730.136 441.928 733.036 437.409 735.097C437.398 738.5 437.51 742.817 437.065 746.104C436.804 742.318 436.841 738.97 436.868 735.171C433.77 736.474 431.788 737.462 429.412 739.905C427.849 745.071 426.403 753.89 426.476 759.268C427.36 766.596 436.864 785.475 440.587 792.762C443.039 797.562 457.038 807.071 461.836 810.026C465.261 812.136 475.786 814.52 480.078 816.035C483.223 817.12 487.733 817.013 489.225 820.029C487.801 820.441 487.651 820.992 486.753 822.229C486.484 824.092 486.316 823.269 487.03 824.816L488.536 825.58C481.224 825.282 458.531 814.915 451.727 810.946C458.128 823.851 458.971 832.617 457.722 846.813C455.131 848.722 452.046 851.175 449.223 852.558C448.601 852.412 448.305 852.418 447.787 852.111L446.833 852.168C442.629 853.707 438.414 857.157 434.314 859.165C431.922 860.337 427.218 860.856 425.343 862.206L425.013 863.972L425.475 865.303L424.919 866.1C420.851 867.032 405.071 862.98 399.2 862.523L398.602 862.483C389.906 862.585 383.56 865.772 377.934 865.991C362.556 866.591 335.105 868.179 320.327 866.001C308.036 864.19 270.889 855.505 262.891 845.547C259.18 840.927 262.449 819.013 263.486 812.933C264.752 805.297 267.023 797.862 270.241 790.822C274.632 781.189 292.966 753.807 301.438 747.796C301.744 746.501 301.936 745.119 302.154 743.799C308.385 728.651 312.759 726.735 316.982 708.908C317.318 706.908 317.933 704.758 318.445 702.779C315.096 697.648 309.219 682.911 309.526 676.543C309.834 670.148 310.979 667.32 315.3 662.897C320.159 660.537 329.064 658.264 334.481 656.967C336.395 652.318 337.242 647.964 338.344 643.077Z"/><path fill="#330606" d="M301.438 747.796C301.763 751.869 302.811 751.818 306.339 753.672C305.649 756.471 309.771 759.918 311.153 762.584C312.884 765.925 318.044 767.681 317.697 772.312C317.68 773.023 317.994 773.482 318.463 774.022L318.844 773.818L318.703 772.266C319.836 772.466 319.684 772.571 320.792 773.317C335.256 783.058 346.207 784.487 363.582 784.433C368.43 784.417 374.217 783.859 378.857 784.085C379.497 800.828 379.902 817.524 382.885 834.01C383.293 836.263 383.617 843.459 385.493 844.227C384.241 846.518 384.335 855.636 384.312 858.485C392.811 862.873 390.564 860.846 398.602 862.483C389.906 862.585 383.56 865.772 377.934 865.991C362.556 866.591 335.105 868.179 320.327 866.001C308.036 864.19 270.889 855.505 262.891 845.547C259.18 840.927 262.449 819.013 263.486 812.933C264.752 805.297 267.023 797.862 270.241 790.822C274.632 781.189 292.966 753.807 301.438 747.796Z"/><path fill="#5F0F0F" d="M338.344 643.077C339.635 644.362 341.046 645.838 342.368 647.061L347.804 648.191C347.901 651.56 347.923 654.729 348.399 658.07C358.854 663.193 367.094 662.541 368.038 676.856C368.647 685.543 386.133 705.541 392.95 711.53C392.279 714.875 391.795 716.945 390.825 720.173C389.945 723.104 387.447 727.522 387.186 730.054C384.209 730.88 358.834 731.584 354.754 731.017C336.455 728.476 335.044 728.583 324.116 715.227L324.212 714.821C320.432 714.768 319.911 711.542 317.846 708.879L316.982 708.908C317.318 706.908 317.933 704.758 318.445 702.779C315.096 697.648 309.219 682.911 309.526 676.543C309.834 670.148 310.979 667.32 315.3 662.897C320.159 660.537 329.064 658.264 334.481 656.967C336.395 652.318 337.242 647.964 338.344 643.077Z"/><path fill="#C41516" d="M338.344 643.077C339.635 644.362 341.046 645.838 342.368 647.061L347.804 648.191C347.901 651.56 347.923 654.729 348.399 658.07C358.854 663.193 367.094 662.541 368.038 676.856C368.264 683.845 368.093 686.651 366.742 693.482C366.077 695.638 363.477 703.349 363.231 705.015C358.367 707.784 348.485 709.093 343.227 707.217C343.194 707.194 343.162 707.171 343.129 707.15C329.781 698.745 332.05 673.786 315.3 662.897C320.159 660.537 329.064 658.264 334.481 656.967C336.395 652.318 337.242 647.964 338.344 643.077Z"/><path fill="#1E0202" d="M366.742 693.482L367.724 693.841C373.136 706.463 377.182 714.001 388.175 722.03C380.797 721.771 370.949 720.649 363.953 718.463C363.527 713.795 363.07 709.722 363.231 705.015C363.477 703.349 366.077 695.638 366.742 693.482Z"/><path fill="#5F0F0F" d="M363.231 705.015C363.07 709.722 363.527 713.795 363.953 718.463C359.576 716.832 344.091 712.926 342.309 708.784L343.227 707.217C348.485 709.093 358.367 707.784 363.231 705.015Z"/><path fill="#330606" d="M318.445 702.779C320.23 706.62 322.569 711.076 324.212 714.821C320.432 714.768 319.911 711.542 317.846 708.879L316.982 708.908C317.318 706.908 317.933 704.758 318.445 702.779Z"/><path fill="#C41516" d="M316.982 708.908L317.846 708.879C319.911 711.542 320.432 714.768 324.212 714.821L324.116 715.227C335.044 728.583 336.455 728.476 354.754 731.017C358.834 731.584 384.209 730.88 387.186 730.054L389.355 730.472L389.671 731.043L388.374 731.629L388.58 732.472L389.354 732.16C390.18 733.447 389.916 732.975 390.254 734.557C389.483 738.387 386.237 756.462 384.537 758.242C381.414 755.992 376.628 755.066 373.044 753.483C363.781 749.393 351.891 745.928 343.267 740.833C345.477 739.719 347.877 738.562 350.047 737.406C329.628 740.798 324.033 759.59 306.339 753.672C302.811 751.818 301.763 751.869 301.438 747.796C301.744 746.501 301.936 745.119 302.154 743.799C308.385 728.651 312.759 726.735 316.982 708.908Z"/><path fill="#5F0F0F" d="M388.374 731.629L388.58 732.472C387.251 738.264 385.162 746.451 384.235 751.966C374.728 752.2 371.614 748.083 363.82 746.177C362.454 745.495 362.379 745.579 361.429 744.429C363.66 742.779 377.647 737.104 380.984 735.656L388.374 731.629Z"/><defs><linearGradient id="gradient_4" gradientUnits="userSpaceOnUse" x1="373.26587" y1="738.73956" x2="374.5705" y2="741.42383"><stop offset="0" stop-color="#530000"/><stop offset="1" stop-color="#7E1F12"/></linearGradient></defs><path fill="url(#gradient_4)" d="M380.984 735.656C382.457 736.463 383.512 736.155 385.125 736.005L385.06 736.609C381.49 738.651 378.569 739.883 374.899 741.561C371.304 743.205 366.558 743.92 363.82 746.177C362.454 745.495 362.379 745.579 361.429 744.429C363.66 742.779 377.647 737.104 380.984 735.656Z"/><path fill="#330606" d="M316.982 708.908L317.846 708.879C319.911 711.542 320.432 714.768 324.212 714.821L324.116 715.227C321.979 718.775 320.133 719.692 318.285 722.476C314.941 727.514 311.407 740.02 306.034 743.136C305.731 743.312 302.668 743.732 302.154 743.799C308.385 728.651 312.759 726.735 316.982 708.908Z"/><path fill="#330606" d="M426.137 759.433L426.476 759.268C427.36 766.596 436.864 785.475 440.587 792.762C443.039 797.562 457.038 807.071 461.836 810.026C465.261 812.136 475.786 814.52 480.078 816.035C483.223 817.12 487.733 817.013 489.225 820.029C487.801 820.441 487.651 820.992 486.753 822.229C486.484 824.092 486.316 823.269 487.03 824.816L488.536 825.58C481.224 825.282 458.531 814.915 451.727 810.946C458.128 823.851 458.971 832.617 457.722 846.813C455.131 848.722 452.046 851.175 449.223 852.558C448.601 852.412 448.305 852.418 447.787 852.111L448.74 851.818L448.892 851.074C446.884 846.788 431.403 837.574 426.488 831.22C426.706 807.121 426.178 783.453 426.137 759.433Z"/><path fill="#5F0F0F" d="M419.123 832.2C419.136 819.811 416.799 806.936 417.981 794.236C418.19 791.99 418.17 787.852 418.618 785.845C419.918 780.011 421.322 777.84 421.27 771.75C421.229 766.938 414.819 749.019 415.184 746.444C416.978 745.05 418.97 744.621 421.164 743.913C424.425 748.791 425.965 753.6 426.137 759.433C426.178 783.453 426.706 807.121 426.488 831.22C431.403 837.574 446.884 846.788 448.892 851.074L448.74 851.818L447.787 852.111L446.833 852.168C440.993 851.845 415.482 844.981 411.951 840.934C411.205 838.419 411.688 835.992 411.941 833.328C414.321 833.075 416.758 832.606 419.123 832.2Z"/><path fill="#5F0F0F" d="M385.493 844.227C390.028 844.04 394.567 843.963 399.106 843.996C403.527 846.084 420.692 859.266 423.923 862.791L424.609 863.525C424.743 863.674 424.878 863.823 425.013 863.972L425.475 865.303L424.919 866.1C420.851 867.032 405.071 862.98 399.2 862.523L398.602 862.483C390.564 860.846 392.811 862.873 384.312 858.485C384.335 855.636 384.241 846.518 385.493 844.227Z"/><defs><linearGradient id="gradient_5" gradientUnits="userSpaceOnUse" x1="425.30066" y1="702.13031" x2="415.39557" y2="689.11731"><stop offset="0" stop-color="#A81815"/><stop offset="1" stop-color="#791F18"/></linearGradient></defs><path fill="url(#gradient_5)" d="M438.173 682.584C443.975 680.381 457.821 672.087 462.254 672.504C458.202 676.64 405.711 701.181 396.927 705.19C394.113 714.446 392.653 725.127 390.254 734.557C389.916 732.975 390.18 733.447 389.354 732.16L388.58 732.472L388.374 731.629L389.671 731.043L389.355 730.472L387.186 730.054C387.447 727.522 389.945 723.104 390.825 720.173C391.795 716.945 392.279 714.875 392.95 711.53C393.524 708.776 394.316 706.605 395.219 703.964C403.913 699.225 424.452 690.711 431.44 685.976C433.693 684.862 435.937 683.732 438.173 682.584Z"/><defs><linearGradient id="gradient_6" gradientUnits="userSpaceOnUse" x1="396.65405" y1="781.70227" x2="415.73306" y2="779.10919"><stop offset="0" stop-color="#510709"/><stop offset="1" stop-color="#83120F"/></linearGradient></defs><path fill="url(#gradient_6)" d="M407.593 749.386C407.722 749.42 407.85 749.454 407.979 749.488C410.529 750.824 412.204 753.777 413.149 756.293C414.338 759.458 414.478 763.577 414.321 766.729C413.976 773.648 407.467 807.629 404.912 812.551L404.143 812.792C403.117 811.994 402.737 812.025 401.452 811.897C401.176 811.979 400.389 812.005 400.062 812.027C397.626 808.595 404.949 780.138 404.551 773.419C404.021 764.498 404.28 761.309 397.467 754.325C401.361 752.053 403.434 751.071 407.593 749.386Z"/><path fill="#C41516" d="M425.521 712.247C426.806 712.373 426.751 712.33 427.903 712.89C429.335 716.072 427.09 717.925 424.651 719.708C423.273 719.596 423.734 719.706 422.497 719.169C421.366 716.117 423.081 713.99 425.521 712.247Z"/><defs><linearGradient id="gradient_7" gradientUnits="userSpaceOnUse" x1="798.84399" y1="471.99539" x2="592.37817" y2="528.09802"><stop offset="0" stop-color="#FF1A22"/><stop offset="1" stop-color="#A33830"/></linearGradient></defs><path fill="url(#gradient_7)" d="M542.074 162.873C537.924 162.054 529.794 158.279 525.584 156.578L495.231 144.469C487.076 141.183 477.261 137.654 469.248 134.133C464.909 132.227 458.178 130.799 455.419 129.328C457.507 129.105 456.957 129.092 458.894 129.797C485.912 139.639 512.372 151.007 539.287 161.138C539.464 161.204 541.905 159.797 542.368 160.249C545.445 160.787 549.604 163.279 552.528 163.764C555.344 163.713 556.983 162.907 559.876 163.185C562.29 163.417 576.504 172.174 577.223 172.229C585.027 172.831 624.161 190.476 629.342 189.613C637.601 188.061 643.846 192.08 651.462 194.412C652.833 194.832 656.836 193.539 658.754 193.982C662.575 193.795 683.142 188.588 683.832 184.937C682.684 183.766 681.055 184.051 678.683 183.003C682.064 182.045 696.69 188.995 700.365 191.03C716.589 198.626 724.605 204.135 731.891 222.067C732.845 224.415 734.365 230.384 734.543 232.818C735.221 236.171 735.179 239.612 735.27 243.04L735.1 244.714L735.015 251.466L734.938 252.054C735.3 295.491 734.856 338.932 733.605 382.353C733.483 388.676 732.587 454.518 732.273 455.116C731.823 434.014 732.28 413.056 731.829 391.994C731.686 385.348 732.08 373.955 731.394 367.723C726.949 365.239 720.063 370.445 716.452 373.015C715.941 385.514 716.605 398.404 716.178 411.105C715.455 408.211 716.657 403.532 715.823 399.794C713.975 398.942 710.14 403.075 708.629 404.362C708.241 421.131 708.964 438.323 708.313 455.169C708.139 459.686 708.503 471.227 707.551 475.256L706.667 753.006L706.838 812.253C706.922 820.8 708.33 853.043 705.698 858.952C702.404 877.305 691.845 888.496 672.616 888.979L672.631 888.593C672.893 886.468 672.213 885.019 671.56 882.957C686.923 883.802 695.902 874.287 700.405 860.614C701.687 848.023 701.455 837.47 701.444 824.876L701.366 784.693L701.15 651.506L701.346 424.346L701.442 336.441C701.512 311.812 701.692 287.198 700.943 262.57C700.701 254.639 700.168 249.073 696.988 241.726C693.311 233.234 684.29 220.477 676.731 215.214C667.756 208.964 654.659 205.518 644.795 201.607C610.791 188.124 576.19 176.048 542.074 162.873Z"/><path fill="#5F0F0F" d="M735.015 251.466L734.938 252.054C735.3 295.491 734.856 338.932 733.605 382.353C733.483 388.676 732.587 454.518 732.273 455.116C731.823 434.014 732.28 413.056 731.829 391.994C731.686 385.348 732.08 373.955 731.394 367.723C726.949 365.239 720.063 370.445 716.452 373.015C715.941 385.514 716.605 398.404 716.178 411.105C715.455 408.211 716.657 403.532 715.823 399.794C713.975 398.942 710.14 403.075 708.629 404.362C708.241 421.131 708.964 438.323 708.313 455.169C708.139 459.686 708.503 471.227 707.551 475.256C707.109 467.5 707.551 456.166 707.618 448.23L707.688 406.014C707.71 366.232 707.064 326.541 707.544 286.767C707.196 280.101 707.565 265.877 708.644 259.452L710.99 261.37C716.669 261.68 730.417 253.313 735.015 251.466Z"/><path fill="#8C1717" d="M735.015 251.466L734.938 252.054C732.944 259.28 736.13 270.235 734.048 276.87L734 252.809C725.873 257.588 728.934 260.103 722.329 265.394C699.953 264.849 711.428 270.066 707.544 286.767C707.196 280.101 707.565 265.877 708.644 259.452L710.99 261.37C716.669 261.68 730.417 253.313 735.015 251.466Z"/><path fill="#E72120" d="M709.824 252.348C714.889 249.702 729.334 245.685 735.1 244.714L735.015 251.466C730.417 253.313 716.669 261.68 710.99 261.37C709.83 258.082 709.985 255.846 709.824 252.348Z"/><path fill="#5F0F0F" d="M658.754 193.982C662.575 193.795 683.142 188.588 683.832 184.937C682.684 183.766 681.055 184.051 678.683 183.003C682.064 182.045 696.69 188.995 700.365 191.03C696.316 191.255 691.465 193.87 687.422 195.161C683.742 196.336 681.046 197.005 677.237 197.855C672.271 191.268 665.452 196.419 658.754 193.982Z"/><path fill="#330606" d="M542.074 162.873C537.924 162.054 529.794 158.279 525.584 156.578L495.231 144.469C487.076 141.183 477.261 137.654 469.248 134.133C464.909 132.227 458.178 130.799 455.419 129.328C457.507 129.105 456.957 129.092 458.894 129.797C485.912 139.639 512.372 151.007 539.287 161.138C539.464 161.204 541.905 159.797 542.368 160.249C545.445 160.787 549.604 163.279 552.528 163.764C555.344 163.713 556.983 162.907 559.876 163.185C562.29 163.417 576.504 172.174 577.223 172.229C585.027 172.831 624.161 190.476 629.342 189.613C632.083 190.739 636.857 192.164 638.143 194.665C635.625 193.751 633.229 192.386 630.377 191.441C625.541 189.837 620.272 188.634 615.554 186.848C608.099 184.026 600.98 180.945 593.368 178.392C583.39 175.047 573.862 172.136 563.773 168.754C557.711 166.722 549.87 163.946 543.543 162.387C543.053 162.549 542.563 162.711 542.074 162.873Z"/><defs><linearGradient id="gradient_8" gradientUnits="userSpaceOnUse" x1="666.36243" y1="183.26767" x2="639.63757" y2="202.73233"><stop offset="0" stop-color="#74090F"/><stop offset="1" stop-color="#3D1819"/></linearGradient></defs><path fill="url(#gradient_8)" d="M629.342 189.613C637.601 188.061 643.846 192.08 651.462 194.412C652.833 194.832 656.836 193.539 658.754 193.982C665.452 196.419 672.271 191.268 677.237 197.855C660.26 200.333 653.734 201.734 638.143 194.665C636.857 192.164 632.083 190.739 629.342 189.613Z"/><path fill="#E72120" d="M700.405 860.614L700.906 861.059C700.97 866.037 694.51 875.362 690.349 878.161C689.417 878.787 689.206 878.82 688.259 879.749L688.8 880.273C690.471 880.372 693.521 880.661 694.793 879.553C699.828 875.171 703.426 865.751 704.671 859.561L704.785 858.97L705.698 858.952C702.404 877.305 691.845 888.496 672.616 888.979L672.631 888.593C672.893 886.468 672.213 885.019 671.56 882.957C686.923 883.802 695.902 874.287 700.405 860.614Z"/><path fill="#C41516" d="M728.37 240.58C730.327 243.674 731.774 242.992 735.27 243.04L735.1 244.714C729.334 245.685 714.889 249.702 709.824 252.348C709.985 255.846 709.83 258.082 710.99 261.37L708.644 259.452C708.557 258.368 709.186 250.661 709.273 248.92C715.481 246.922 722.546 243.509 728.37 240.58Z"/><path fill="#E72120" d="M734.543 232.818C735.221 236.171 735.179 239.612 735.27 243.04C731.774 242.992 730.327 243.674 728.37 240.58C733.014 237.695 734.397 238.336 734.543 232.818Z"/><path fill="#5F0F0F" d="M521.255 830.91C523.726 830.592 525.358 830.77 527.736 831.549C542.227 836.297 556.542 841.495 570.847 846.683L636.588 870.82C642.19 872.903 665.52 880.589 668.067 882.147L671.56 882.957C672.213 885.019 672.893 886.468 672.631 888.593L672.616 888.979C667.935 889.333 651.984 893.613 646.433 894.86C641.646 895.875 638.436 895.149 634.65 891.775C627.566 893.233 621.508 894.335 614.259 894.715L613.988 900.263C609.029 900.498 602.815 901.892 597.931 901.814C588.796 901.669 578.627 900.623 569.546 901.386C568.306 901.49 568.929 901.729 567.131 901.501L567.306 901.098C572 899.754 580.37 899.325 585.408 899.321C588.567 899.305 596.171 902.081 598.91 901.461C602.625 900.62 612.236 900.714 614.453 898.176L614.197 897.339C609.96 892.914 601.792 895.494 596.419 895.631C586.787 895.463 577.244 897.831 567.864 898.336C550.861 899.252 533.062 898.716 516.01 898.654C513.683 898.645 506.126 899.252 504.725 900.771L505.166 901.633C510.041 902.205 516.799 900.904 520.952 901.531C528.328 902.644 540.625 900.934 547.148 902.162L547.156 902.632C533.856 901.681 516.679 903.266 504.421 902.126C504.148 901.591 503.485 899.974 502.738 900.006C481.512 900.894 460.146 900.183 438.924 899.385C428.373 898.861 417.464 898.94 407.005 897.502C400.519 896.61 392.91 894.057 386.583 892.233C411.985 882.384 445.228 882.162 465.329 862.847C480.763 848.015 482.087 835.172 507.32 837.579C510.062 837.84 519.262 838.255 521.905 837.818L522.136 836.677L520.112 836.234C519.89 833.848 519.727 833.153 521.32 831.418L521.255 830.91Z"/><path fill="#8C1717" d="M521.255 830.91C523.726 830.592 525.358 830.77 527.736 831.549C542.227 836.297 556.542 841.495 570.847 846.683L636.588 870.82C642.19 872.903 665.52 880.589 668.067 882.147C657.825 882.693 618.322 866.48 606.44 861.81C603.839 862.659 603.362 862.894 601.883 865.4C595.078 862.616 588.409 860.645 581.567 858.101C566.43 852.472 551.491 846.882 536.115 841.929C531.108 840.195 527.395 838.102 522.136 836.677L520.112 836.234C519.89 833.848 519.727 833.153 521.32 831.418L521.255 830.91Z"/><path fill="#E72120" d="M536.583 837.198L584.694 854.162C590.495 856.19 600.769 860.514 606.44 861.81C603.839 862.659 603.362 862.894 601.883 865.4C595.078 862.616 588.409 860.645 581.567 858.101C566.43 852.472 551.491 846.882 536.115 841.929C535.757 839.536 535.523 839.464 536.583 837.198Z"/><path fill="#C41516" d="M521.32 831.418C525.26 832.989 533.782 835.065 536.583 837.198C535.523 839.464 535.757 839.536 536.115 841.929C531.108 840.195 527.395 838.102 522.136 836.677L520.112 836.234C519.89 833.848 519.727 833.153 521.32 831.418Z"/><path fill="#F7211F" d="M606.44 861.81C618.322 866.48 657.825 882.693 668.067 882.147L671.56 882.957C672.213 885.019 672.893 886.468 672.631 888.593C658.482 888.505 648.162 882.578 635.659 877.979L601.883 865.4C603.362 862.894 603.839 862.659 606.44 861.81Z"/><path fill="#330606" d="M634.65 891.775C637.068 891.229 640.459 890.16 642.727 890.638C645.711 892.905 643.227 893.466 646.433 894.86C641.646 895.875 638.436 895.149 634.65 891.775Z"/><path fill="#330606" d="M453.954 912.233C466.196 911.751 480.882 913.496 493.955 913.371L552.238 912.855C565.829 912.605 577.545 911.824 591.451 912.058L583.127 915.779C581.221 916.717 579.177 917.544 577.119 918.085C565.287 921.196 551.638 922.258 539.435 922.738C525.484 923.286 465.774 921.799 455.697 915.028C454.454 914.193 454.27 913.654 453.954 912.233Z"/><path fill="#5F0F0F" d="M359.596 614.325C360.535 614.677 360.908 615.35 361.526 616.137C368.171 624.596 365.297 637.692 357.051 643.545C355.561 643.554 354.072 643.532 352.583 643.48C346.184 643.215 343.319 639.712 339.355 635.4L338.749 632.969C332.128 634.91 328.328 626.371 332.175 623.654C334.133 622.27 339.13 626.162 342.294 627.272L343.008 627.519C352.151 623.14 353.271 622.282 359.596 614.325Z"/><path fill="#330606" d="M721.53 422.664C723.368 424.492 724.707 426.127 727.319 426.353L728.648 425.81C729.063 424.793 729.243 424.333 729.525 423.276C729.995 438.033 729.622 462.819 729.139 478.244C729.082 480.091 723.937 482.004 722.01 482.822C721.114 462.782 720.954 442.716 721.53 422.664Z"/><path fill="#C41516" d="M721.651 375.537C724.689 373.573 726.135 372.985 729.445 371.559C729.601 383.071 729.625 394.584 729.516 406.097C729.497 410.161 729.199 419.467 729.525 423.276C729.243 424.333 729.063 424.793 728.648 425.81L727.319 426.353C724.707 426.127 723.368 424.492 721.53 422.664C721.545 409.524 720.755 387.883 721.651 375.537Z"/><path fill="#8C1717" d="M488.536 825.58L487.03 824.816C486.316 823.269 486.484 824.092 486.753 822.229C487.651 820.992 487.801 820.441 489.225 820.029C492.298 822.007 496.766 823.116 500.317 824.487C507.471 826.322 514.182 828.834 521.255 830.91L521.32 831.418C519.727 833.153 519.89 833.848 520.112 836.234C512.938 832.587 505.035 830.661 498.855 827.322C494.906 826.108 492.655 825.412 488.536 825.58Z"/><path fill="#1E0202" d="M418.165 247.286C420.171 249.318 420.479 275.527 418.268 277.225L416.788 276.54C411.58 266.109 412.537 257.215 418.165 247.286Z"/><path fill="#C41516" d="M940.727 66.0009C945.092 65.5915 946.414 68.3298 948.888 71.4445C947.348 75.3752 946.606 76.4031 943.463 79.2029C934.968 77.095 931.136 69.9993 940.727 66.0009Z"/><path fill="#EB4542" d="M568.43 190.222C572.27 191.691 588.222 197.235 586.955 202.313C586.264 202.795 586.042 203.193 584.753 202.692C577.845 200.011 570.154 197.102 563.333 194.395C565.304 192.359 565.88 191.544 568.43 190.222Z"/><path fill="#F7211F" d="M825.72 639.741C831.205 639.077 834.345 640.292 833.957 646.504C829.634 655.149 817.533 649.779 825.72 639.741Z"/><path fill="#E72120" d="M825.72 639.741C831.205 639.077 834.345 640.292 833.957 646.504C827.53 645.209 833.894 641.531 825.72 639.741Z"/><path fill="#C41516" d="M297.439 181.353C303.217 180.995 306.178 189.468 299.491 193.886C291.918 193.345 291.072 185.82 297.439 181.353Z"/><path fill="#C41516" d="M328.099 410.982C332.598 411.228 333.372 413.499 335.532 416.934C333.235 420.032 331.574 421.871 327.766 422.622C327.467 421.858 327.568 422.307 327.609 421.249L328.971 421.277L329.035 420.94C326.282 419.869 323.433 418.829 322.879 415.708C323.607 413.329 326.041 412.094 328.099 410.982Z"/><path fill="#E72120" d="M154.27 783.53C162.336 783.127 163.404 788.869 157.579 793.384C150.677 794.023 149.241 787.716 154.27 783.53Z"/><path fill="#E72120" d="M154.941 400.888L155.62 400.863C163.01 400.628 164.526 404.874 159.109 409.185C152.43 411.297 151.559 405.605 154.941 400.888Z"/><path fill="#C41516" d="M553.817 190.405C550.801 189.361 545.27 186.639 543.029 184.226C542.526 182.561 542.467 183.34 543.116 181.805C545.703 181.238 555.825 185.647 558.826 186.818C557.058 187.983 555.392 188.986 553.817 190.405Z"/><path fill="#C41516" d="M106.54 74.9613C109.587 74.8972 111.549 74.7666 113.061 77.8741C113.313 80.6626 112.518 81.7857 110.855 84.0417C105.264 83.2927 101.61 79.6307 106.54 74.9613Z"/><path fill="#C41516" d="M89.5673 910.212C92.0889 909.989 91.6659 909.644 93.5775 910.62C96.4455 914.619 93.9564 918.561 89.2572 919.143C88.9157 918.879 88.5794 918.609 88.2486 918.332C84.4796 915.153 86.8501 912.695 89.5673 910.212Z"/><path fill="#8C1717" d="M89.5673 910.212C89.4829 912.8 89.1344 916.811 89.2572 919.143C88.9157 918.879 88.5794 918.609 88.2486 918.332C84.4796 915.153 86.8501 912.695 89.5673 910.212Z"/><path fill="#E72120" d="M879.627 420.012C880.95 420.211 880.87 420.184 882.028 420.854C884.132 424.605 882.094 427.723 878.795 429.67C873.306 426.577 873.472 421.294 879.627 420.012Z"/><path fill="#E72120" d="M558.826 186.818C560.997 187.603 566.451 189.738 568.43 190.222C565.88 191.544 565.304 192.359 563.333 194.395L553.817 190.405C555.392 188.986 557.058 187.983 558.826 186.818Z"/><path fill="#C41516" d="M947.362 790.381C953.332 790.229 954.115 792.919 951.394 797.628C945.5 798.711 946.338 794.209 947.362 790.381Z"/></svg>